<svg xmlns="http://www.w3.org/2000/svg" xmlns:xlink="http://www.w3.org/1999/xlink" contentStyleType="text/css" data-diagram-type="SEQUENCE" height="674px" preserveAspectRatio="none" style="width:858px;height:674px;background:#FFFFFF;" version="1.1" viewBox="0 0 858 674" width="858px" zoomAndPan="magnify"><title>UC1: &#1057;&#1086;&#1079;&#1076;&#1072;&#1085;&#1080;&#1077; &#1087;&#1088;&#1080;&#1074;&#1099;&#1095;&#1082;&#1080;</title><defs/><g><text fill="#000000" font-family="sans-serif" font-size="14" font-weight="bold" lengthAdjust="spacing" textLength="204.4355" x="327.9495" y="27.9951">UC1: &#1057;&#1086;&#1079;&#1076;&#1072;&#1085;&#1080;&#1077; &#1087;&#1088;&#1080;&#1074;&#1099;&#1095;&#1082;&#1080;</text><rect fill="none" height="235.8672" style="stroke:#000000;stroke-width:1.5;" width="841.3345" x="10" y="326.8203"/><g><title>............</title><rect fill="#000000" fill-opacity="0.00000" height="458.7969" width="8" x="70.5498" y="120.8906"/><line style="stroke:#181818;stroke-width:0.5;stroke-dasharray:5,5;" x1="74" x2="74" y1="120.8906" y2="579.6875"/></g><g><title>UI</title><rect fill="#000000" fill-opacity="0.00000" height="458.7969" width="8" x="343.7969" y="120.8906"/><line style="stroke:#181818;stroke-width:0.5;stroke-dasharray:5,5;" x1="346.8384" x2="346.8384" y1="120.8906" y2="579.6875"/></g><g><title>HabitController</title><rect fill="#000000" fill-opacity="0.00000" height="458.7969" width="8" x="573.9941" y="120.8906"/><line style="stroke:#181818;stroke-width:0.5;stroke-dasharray:5,5;" x1="577.7217" x2="577.7217" y1="120.8906" y2="579.6875"/></g><g><title>Habit</title><rect fill="#000000" fill-opacity="0.00000" height="458.7969" width="8" x="679.6162" y="120.8906"/><line style="stroke:#181818;stroke-width:0.5;stroke-dasharray:5,5;" x1="682.9302" x2="682.9302" y1="120.8906" y2="579.6875"/></g><g><title>HabitRepository</title><rect fill="#000000" fill-opacity="0.00000" height="458.7969" width="8" x="774.3184" y="120.8906"/><line style="stroke:#181818;stroke-width:0.5;stroke-dasharray:5,5;" x1="778.3022" x2="778.3022" y1="120.8906" y2="579.6875"/></g><g class="participant participant-head" data-participant="User"><text fill="#000000" font-family="sans-serif" font-size="14" lengthAdjust="spacing" textLength="103.0996" x="20" y="117.5889">&#1055;&#1086;&#1083;&#1100;&#1079;&#1086;&#1074;&#1072;&#1090;&#1077;&#1083;&#1100;</text><ellipse cx="74.5498" cy="53.0938" fill="#E2E2F0" rx="8" ry="8" style="stroke:#181818;stroke-width:0.5;"/><path d="M74.5498,61.0938 L74.5498,88.0938 M61.5498,69.0938 L87.5498,69.0938 M74.5498,88.0938 L61.5498,103.0938 M74.5498,88.0938 L87.5498,103.0938" fill="none" style="stroke:#181818;stroke-width:0.5;"/></g><g class="participant participant-tail" data-participant="User"><text fill="#000000" font-family="sans-serif" font-size="14" lengthAdjust="spacing" textLength="103.0996" x="20" y="591.6826">&#1055;&#1086;&#1083;&#1100;&#1079;&#1086;&#1074;&#1072;&#1090;&#1077;&#1083;&#1100;</text><ellipse cx="74.5498" cy="603.4844" fill="#E2E2F0" rx="8" ry="8" style="stroke:#181818;stroke-width:0.5;"/><path d="M74.5498,611.4844 L74.5498,638.4844 M61.5498,619.4844 L87.5498,619.4844 M74.5498,638.4844 L61.5498,653.4844 M74.5498,638.4844 L87.5498,653.4844" fill="none" style="stroke:#181818;stroke-width:0.5;"/></g><g class="participant participant-head" data-participant="UI"><text fill="#000000" font-family="sans-serif" font-size="14" lengthAdjust="spacing" textLength="14.376" x="337.6089" y="101.292">UI</text><text fill="#000000" font-family="sans-serif" font-size="14" lengthAdjust="spacing" textLength="129.917" x="279.8384" y="117.5889">(&#1101;&#1082;&#1088;&#1072;&#1085; &#1087;&#1088;&#1080;&#1074;&#1099;&#1095;&#1077;&#1082;)</text><path d="M327.2969,60.2969 L327.2969,84.2969 M327.2969,72.2969 L344.2969,72.2969" fill="none" style="stroke:#181818;stroke-width:0.5;"/><ellipse cx="356.2969" cy="72.2969" fill="#E2E2F0" rx="12" ry="12" style="stroke:#181818;stroke-width:0.5;"/></g><g class="participant participant-tail" data-participant="UI"><text fill="#000000" font-family="sans-serif" font-size="14" lengthAdjust="spacing" textLength="14.376" x="337.6089" y="591.6826">UI</text><text fill="#000000" font-family="sans-serif" font-size="14" lengthAdjust="spacing" textLength="129.917" x="279.8384" y="607.9795">(&#1101;&#1082;&#1088;&#1072;&#1085; &#1087;&#1088;&#1080;&#1074;&#1099;&#1095;&#1077;&#1082;)</text><path d="M327.2969,615.2813 L327.2969,639.2813 M327.2969,627.2813 L344.2969,627.2813" fill="none" style="stroke:#181818;stroke-width:0.5;"/><ellipse cx="356.2969" cy="627.2813" fill="#E2E2F0" rx="12" ry="12" style="stroke:#181818;stroke-width:0.5;"/></g><g class="participant participant-head" data-participant="C"><text fill="#000000" font-family="sans-serif" font-size="14" lengthAdjust="spacing" textLength="106.5449" x="521.7217" y="117.5889">HabitController</text><ellipse cx="577.9941" cy="88.5938" fill="#E2E2F0" rx="12" ry="12" style="stroke:#181818;stroke-width:0.5;"/><polygon fill="#181818" points="573.9941,76.5938,579.9941,71.5938,577.9941,76.5938,579.9941,81.5938,573.9941,76.5938" style="stroke:#181818;stroke-width:1;"/></g><g class="participant participant-tail" data-participant="C"><text fill="#000000" font-family="sans-serif" font-size="14" lengthAdjust="spacing" textLength="106.5449" x="521.7217" y="591.6826">HabitController</text><ellipse cx="577.9941" cy="610.9844" fill="#E2E2F0" rx="12" ry="12" style="stroke:#181818;stroke-width:0.5;"/><polygon fill="#181818" points="573.9941,598.9844,579.9941,593.9844,577.9941,598.9844,579.9941,603.9844,573.9941,598.9844" style="stroke:#181818;stroke-width:1;"/></g><g class="participant participant-head" data-participant="H"><text fill="#000000" font-family="sans-serif" font-size="14" lengthAdjust="spacing" textLength="37.3721" x="661.9302" y="117.5889">Habit</text><ellipse cx="683.6162" cy="88.5938" fill="#E2E2F0" rx="12" ry="12" style="stroke:#181818;stroke-width:0.5;"/><line style="stroke:#181818;stroke-width:0.5;" x1="671.6162" x2="695.6162" y1="102.5938" y2="102.5938"/></g><g class="participant participant-tail" data-participant="H"><text fill="#000000" font-family="sans-serif" font-size="14" lengthAdjust="spacing" textLength="37.3721" x="661.9302" y="591.6826">Habit</text><ellipse cx="683.6162" cy="610.9844" fill="#E2E2F0" rx="12" ry="12" style="stroke:#181818;stroke-width:0.5;"/><line style="stroke:#181818;stroke-width:0.5;" x1="671.6162" x2="695.6162" y1="624.9844" y2="624.9844"/></g><g class="participant participant-head" data-participant="R"><text fill="#000000" font-family="sans-serif" font-size="14" lengthAdjust="spacing" textLength="112.4443" x="719.0962" y="101.292">HabitRepository</text><text fill="#000000" font-family="sans-serif" font-size="14" lengthAdjust="spacing" textLength="120.0322" x="715.3022" y="117.5889">(&#1041;&#1044;/&#1093;&#1088;&#1072;&#1085;&#1080;&#1083;&#1080;&#1097;&#1077;)</text><path d="M760.3184,52.2969 C760.3184,42.2969 778.3184,42.2969 778.3184,42.2969 C778.3184,42.2969 796.3184,42.2969 796.3184,52.2969 L796.3184,78.2969 C796.3184,88.2969 778.3184,88.2969 778.3184,88.2969 C778.3184,88.2969 760.3184,88.2969 760.3184,78.2969 L760.3184,52.2969" fill="#E2E2F0" style="stroke:#181818;stroke-width:0.5;"/><path d="M760.3184,52.2969 C760.3184,62.2969 778.3184,62.2969 778.3184,62.2969 C778.3184,62.2969 796.3184,62.2969 796.3184,52.2969" fill="none" style="stroke:#181818;stroke-width:0.5;"/></g><g class="participant participant-tail" data-participant="R"><text fill="#000000" font-family="sans-serif" font-size="14" lengthAdjust="spacing" textLength="112.4443" x="719.0962" y="591.6826">HabitRepository</text><text fill="#000000" font-family="sans-serif" font-size="14" lengthAdjust="spacing" textLength="120.0322" x="715.3022" y="607.9795">(&#1041;&#1044;/&#1093;&#1088;&#1072;&#1085;&#1080;&#1083;&#1080;&#1097;&#1077;)</text><path d="M760.3184,621.2813 C760.3184,611.2813 778.3184,611.2813 778.3184,611.2813 C778.3184,611.2813 796.3184,611.2813 796.3184,621.2813 L796.3184,647.2813 C796.3184,657.2813 778.3184,657.2813 778.3184,657.2813 C778.3184,657.2813 760.3184,657.2813 760.3184,647.2813 L760.3184,621.2813" fill="#E2E2F0" style="stroke:#181818;stroke-width:0.5;"/><path d="M760.3184,621.2813 C760.3184,631.2813 778.3184,631.2813 778.3184,631.2813 C778.3184,631.2813 796.3184,631.2813 796.3184,621.2813" fill="none" style="stroke:#181818;stroke-width:0.5;"/></g><g class="message" data-participant-1="User" data-participant-2="UI"><polygon fill="#181818" points="335.7969,148.0234,345.7969,152.0234,335.7969,156.0234,339.7969,152.0234" style="stroke:#181818;stroke-width:1;"/><line style="stroke:#181818;stroke-width:1;" x1="74.5498" x2="341.7969" y1="152.0234" y2="152.0234"/><text fill="#000000" font-family="sans-serif" font-size="13" lengthAdjust="spacing" textLength="223.2598" x="81.5498" y="146.9575">&#1053;&#1072;&#1078;&#1080;&#1084;&#1072;&#1077;&#1090; "&#1044;&#1086;&#1073;&#1072;&#1074;&#1080;&#1090;&#1100; &#1087;&#1088;&#1080;&#1074;&#1099;&#1095;&#1082;&#1091;"</text></g><g class="message" data-participant-1="UI" data-participant-2="User"><polygon fill="#181818" points="85.5498,192.2891,75.5498,196.2891,85.5498,200.2891,81.5498,196.2891" style="stroke:#181818;stroke-width:1;"/><line style="stroke:#181818;stroke-width:1;" x1="79.5498" x2="346.7969" y1="196.2891" y2="196.2891"/><text fill="#000000" font-family="sans-serif" font-size="13" lengthAdjust="spacing" textLength="249.2471" x="91.5498" y="176.0903">&#1055;&#1086;&#1082;&#1072;&#1079;&#1099;&#1074;&#1072;&#1077;&#1090; &#1092;&#1086;&#1088;&#1084;&#1091; (&#1085;&#1072;&#1079;&#1074;&#1072;&#1085;&#1080;&#1077;, &#1094;&#1077;&#1083;&#1100;,</text><text fill="#000000" font-family="sans-serif" font-size="13" lengthAdjust="spacing" textLength="186.1196" x="91.5498" y="191.2231">&#1088;&#1072;&#1089;&#1087;&#1080;&#1089;&#1072;&#1085;&#1080;&#1077;, &#1085;&#1072;&#1087;&#1086;&#1084;&#1080;&#1085;&#1072;&#1085;&#1080;&#1103;)</text></g><g class="message" data-participant-1="User" data-participant-2="UI"><polygon fill="#181818" points="335.7969,236.5547,345.7969,240.5547,335.7969,244.5547,339.7969,240.5547" style="stroke:#181818;stroke-width:1;"/><line style="stroke:#181818;stroke-width:1;" x1="74.5498" x2="341.7969" y1="240.5547" y2="240.5547"/><text fill="#000000" font-family="sans-serif" font-size="13" lengthAdjust="spacing" textLength="121.9067" x="81.5498" y="220.356">&#1047;&#1072;&#1087;&#1086;&#1083;&#1085;&#1103;&#1077;&#1090; &#1092;&#1086;&#1088;&#1084;&#1091;</text><text fill="#000000" font-family="sans-serif" font-size="13" lengthAdjust="spacing" textLength="171.7676" x="81.5498" y="235.4888">&#1080; &#1085;&#1072;&#1078;&#1080;&#1084;&#1072;&#1077;&#1090; "&#1057;&#1086;&#1093;&#1088;&#1072;&#1085;&#1080;&#1090;&#1100;"</text></g><g class="message" data-participant-1="UI" data-participant-2="C"><polygon fill="#181818" points="565.9941,265.6875,575.9941,269.6875,565.9941,273.6875,569.9941,269.6875" style="stroke:#181818;stroke-width:1;"/><line style="stroke:#181818;stroke-width:1;" x1="347.7969" x2="571.9941" y1="269.6875" y2="269.6875"/><text fill="#000000" font-family="sans-serif" font-size="13" lengthAdjust="spacing" textLength="115.6797" x="354.7969" y="264.6216">createHabit(data)</text></g><g class="message" data-participant-1="C" data-participant-2="C"><line style="stroke:#181818;stroke-width:1;" x1="577.9941" x2="619.9941" y1="298.8203" y2="298.8203"/><line style="stroke:#181818;stroke-width:1;" x1="619.9941" x2="619.9941" y1="298.8203" y2="311.8203"/><line style="stroke:#181818;stroke-width:1;" x1="578.9941" x2="619.9941" y1="311.8203" y2="311.8203"/><polygon fill="#181818" points="588.9941,307.8203,578.9941,311.8203,588.9941,315.8203,584.9941,311.8203" style="stroke:#181818;stroke-width:1;"/><text fill="#000000" font-family="sans-serif" font-size="13" lengthAdjust="spacing" textLength="91.6221" x="584.9941" y="293.7544">validate(data)</text></g><path d="M10,326.8203 L74.4429,326.8203 L74.4429,333.9531 L64.4429,343.9531 L10,343.9531 L10,326.8203" fill="#EEEEEE" style="stroke:#000000;stroke-width:1.5;"/><rect fill="none" height="235.8672" style="stroke:#000000;stroke-width:1.5;" width="841.3345" x="10" y="326.8203"/><text fill="#000000" font-family="sans-serif" font-size="13" font-weight="bold" lengthAdjust="spacing" textLength="19.4429" x="25" y="339.8872">alt</text><text fill="#000000" font-family="sans-serif" font-size="11" font-weight="bold" lengthAdjust="spacing" textLength="133.332" x="89.4429" y="339.0308">[&#1044;&#1072;&#1085;&#1085;&#1099;&#1077; &#1082;&#1086;&#1088;&#1088;&#1077;&#1082;&#1090;&#1085;&#1099;]</text><g class="message" data-participant-1="C" data-participant-2="H"><polygon fill="#181818" points="671.6162,361.0859,681.6162,365.0859,671.6162,369.0859,675.6162,365.0859" style="stroke:#181818;stroke-width:1;"/><line style="stroke:#181818;stroke-width:1;" x1="577.9941" x2="677.6162" y1="365.0859" y2="365.0859"/><text fill="#000000" font-family="sans-serif" font-size="13" lengthAdjust="spacing" textLength="66.2949" x="584.9941" y="360.02">new(data)</text></g><g class="message" data-participant-1="C" data-participant-2="R"><polygon fill="#181818" points="766.3184,390.2188,776.3184,394.2188,766.3184,398.2188,770.3184,394.2188" style="stroke:#181818;stroke-width:1;"/><line style="stroke:#181818;stroke-width:1;" x1="577.9941" x2="772.3184" y1="394.2188" y2="394.2188"/><text fill="#000000" font-family="sans-serif" font-size="13" lengthAdjust="spacing" textLength="50.3496" x="584.9941" y="389.1528">save(H)</text></g><g class="message" data-participant-1="R" data-participant-2="C"><polygon fill="#181818" points="588.9941,419.3516,578.9941,423.3516,588.9941,427.3516,584.9941,423.3516" style="stroke:#181818;stroke-width:1;"/><line style="stroke:#181818;stroke-width:1;stroke-dasharray:2,2;" x1="582.9941" x2="777.3184" y1="423.3516" y2="423.3516"/><text fill="#000000" font-family="sans-serif" font-size="13" lengthAdjust="spacing" textLength="44.897" x="594.9941" y="418.2856">OK (id)</text></g><g class="message" data-participant-1="C" data-participant-2="UI"><polygon fill="#181818" points="358.7969,448.4844,348.7969,452.4844,358.7969,456.4844,354.7969,452.4844" style="stroke:#181818;stroke-width:1;"/><line style="stroke:#181818;stroke-width:1;stroke-dasharray:2,2;" x1="352.7969" x2="576.9941" y1="452.4844" y2="452.4844"/><text fill="#000000" font-family="sans-serif" font-size="13" lengthAdjust="spacing" textLength="113.5913" x="364.7969" y="447.4185">&#1059;&#1089;&#1087;&#1077;&#1093; + habit(id)</text></g><g class="message" data-participant-1="UI" data-participant-2="User"><polygon fill="#181818" points="85.5498,477.6172,75.5498,481.6172,85.5498,485.6172,81.5498,481.6172" style="stroke:#181818;stroke-width:1;"/><line style="stroke:#181818;stroke-width:1;stroke-dasharray:2,2;" x1="79.5498" x2="346.7969" y1="481.6172" y2="481.6172"/><text fill="#000000" font-family="sans-serif" font-size="13" lengthAdjust="spacing" textLength="219.3687" x="91.5498" y="476.5513">&#1055;&#1086;&#1082;&#1072;&#1079; &#1085;&#1086;&#1074;&#1086;&#1081; &#1087;&#1088;&#1080;&#1074;&#1099;&#1095;&#1082;&#1080; &#1074; &#1089;&#1087;&#1080;&#1089;&#1082;&#1077;</text></g><line style="stroke:#000000;stroke-width:1;stroke-dasharray:2,2;" x1="10" x2="851.3345" y1="490.6172" y2="490.6172"/><text fill="#000000" font-family="sans-serif" font-size="11" font-weight="bold" lengthAdjust="spacing" textLength="135.2173" x="15" y="500.8276">[&#1054;&#1096;&#1080;&#1073;&#1082;&#1072; &#1074;&#1072;&#1083;&#1080;&#1076;&#1072;&#1094;&#1080;&#1080;]</text><g class="message" data-participant-1="C" data-participant-2="UI"><polygon fill="#181818" points="358.7969,521.5547,348.7969,525.5547,358.7969,529.5547,354.7969,525.5547" style="stroke:#181818;stroke-width:1;"/><line style="stroke:#181818;stroke-width:1;stroke-dasharray:2,2;" x1="352.7969" x2="576.9941" y1="525.5547" y2="525.5547"/><text fill="#000000" font-family="sans-serif" font-size="13" lengthAdjust="spacing" textLength="206.1973" x="364.7969" y="520.4888">&#1054;&#1096;&#1080;&#1073;&#1082;&#1072; (&#1082;&#1072;&#1082;&#1086;&#1077; &#1087;&#1086;&#1083;&#1077; &#1085;&#1077;&#1074;&#1077;&#1088;&#1085;&#1086;)</text></g><g class="message" data-participant-1="UI" data-participant-2="User"><polygon fill="#181818" points="85.5498,550.6875,75.5498,554.6875,85.5498,558.6875,81.5498,554.6875" style="stroke:#181818;stroke-width:1;"/><line style="stroke:#181818;stroke-width:1;stroke-dasharray:2,2;" x1="79.5498" x2="346.7969" y1="554.6875" y2="554.6875"/><text fill="#000000" font-family="sans-serif" font-size="13" lengthAdjust="spacing" textLength="154.5908" x="91.5498" y="549.6216">&#1057;&#1086;&#1086;&#1073;&#1097;&#1077;&#1085;&#1080;&#1077; &#1086;&#1073; &#1086;&#1096;&#1080;&#1073;&#1082;&#1077;</text></g><!--SRC=[RLFBQjj05DtFLroqKcX2wRQBRhHnw29WyCwRiJrGWP2Af2PurpXD7oGb509TjQNq1nAJQLJvzGlt_b7FZ6IdThEnFFUUUyvzbd6P6Ef5pvuJ_-Gbt_CTt_22AxR4AtcBFrEva0zSSwMK7fPPJW7_078cbq0lUSetCc7htW7fWdg5oTKWUvEET3wce7VOJqFvp3MuGBnDQhdUQu8ErJ1BopnBAEZeGLn6pIinkVT7ogHbN8vRhxTrr4YNUg0BqrgxvdLMnCXm34d-mjTFvRnHXU2CA_d4jf7hAkNIf8CNK2QK_Wsetq3DyRKoGOdNAEqMhodY9dAvqmmv2nGYNRpZ0ODhIGtylLoubdWMUSTBHCtbZ48a0QTt-UxkaxnlkhRVJrsMSiehQ9q-07p82hnpl1UDNQxsTdF_sg9cl92h7Tr-obN3irqTHltG6rVVkfm8ZCFSwDBubeQknL2CrhvZdSImcRL39oMXLuvdWSgnDBNJ1ZLcYxs0KH7vy0x2KtFIHhR6Beo5FZPXnvcwTD3g7BsaC1wri4sfltoJh9pJ4thbysimBlV7Pk5ATnkwv3__RJFnb3Ozhzagas2J-Bjy1EhMnPEV5XR7tGIcLU44jlFv5nnwILJlByVFmpfz2nOBQMJoIAhkvh1eRZNNLuSdVZRCI2mT_GK0]--></g></svg>