<svg xmlns="http://www.w3.org/2000/svg" xmlns:xlink="http://www.w3.org/1999/xlink" contentStyleType="text/css" data-diagram-type="SEQUENCE" height="684px" preserveAspectRatio="none" style="width:1248px;height:684px;background:#FFFFFF;" version="1.1" viewBox="0 0 1248 684" width="1248px" zoomAndPan="magnify"><title>&#1060;&#1080;&#1083;&#1100;&#1090;&#1088;&#1072;&#1094;&#1080;&#1103; &#1079;&#1072;&#1076;&#1072;&#1095; &#1087;&#1086; &#1082;&#1072;&#1090;&#1077;&#1075;&#1086;&#1088;&#1080;&#1080;</title><defs/><g><text fill="#000000" font-family="sans-serif" font-size="14" font-weight="bold" lengthAdjust="spacing" textLength="264.5508" x="493.6189" y="27.9951">&#1060;&#1080;&#1083;&#1100;&#1090;&#1088;&#1072;&#1094;&#1080;&#1103; &#1079;&#1072;&#1076;&#1072;&#1095; &#1087;&#1086; &#1082;&#1072;&#1090;&#1077;&#1075;&#1086;&#1088;&#1080;&#1080;</text><g><title>............</title><rect fill="#FFFFFF" height="421.125" style="stroke:#181818;stroke-width:1;" width="10" x="54.5498" y="164.8594"/></g><g><title>UI</title><rect fill="#FFFFFF" height="29.1328" style="stroke:#181818;stroke-width:1;" width="10" x="391.8916" y="164.8594"/></g><g><title>UI</title><rect fill="#FFFFFF" height="128.5313" style="stroke:#181818;stroke-width:1;" width="10" x="391.8916" y="457.4531"/></g><g><title>..........</title><rect fill="#FFFFFF" height="263.4609" style="stroke:#181818;stroke-width:1;" width="10" x="687.3916" y="193.9922"/></g><g><title>...... .....</title><rect fill="#FFFFFF" height="190.0625" style="stroke:#181818;stroke-width:1;" width="10" x="930.3965" y="223.125"/></g><g><title>.... ......</title><rect fill="#FFFFFF" height="29.1328" style="stroke:#181818;stroke-width:1;" width="10" x="1192.5078" y="312.7891"/></g><g><title>............</title><rect fill="#000000" fill-opacity="0.00000" height="485.3906" width="8" x="55.5498" y="118.5938"/><line style="stroke:#181818;stroke-width:0.5;stroke-dasharray:5,5;" x1="59" x2="59" y1="118.5938" y2="603.9844"/></g><g><title>UI</title><rect fill="#000000" fill-opacity="0.00000" height="485.3906" width="8" x="392.8916" y="118.5938"/><line style="stroke:#181818;stroke-width:0.5;stroke-dasharray:5,5;" x1="396.7036" x2="396.7036" y1="118.5938" y2="603.9844"/></g><g><title>..........</title><rect fill="#000000" fill-opacity="0.00000" height="485.3906" width="8" x="688.3916" y="118.5938"/><line style="stroke:#181818;stroke-width:0.5;stroke-dasharray:5,5;" x1="692.0605" x2="692.0605" y1="118.5938" y2="603.9844"/></g><g><title>...... .....</title><rect fill="#000000" fill-opacity="0.00000" height="485.3906" width="8" x="931.3965" y="118.5938"/><line style="stroke:#181818;stroke-width:0.5;stroke-dasharray:5,5;" x1="934.7334" x2="934.7334" y1="118.5938" y2="603.9844"/></g><g><title>.... ......</title><rect fill="#000000" fill-opacity="0.00000" height="485.3906" width="8" x="1193.5078" y="118.5938"/><line style="stroke:#181818;stroke-width:0.5;stroke-dasharray:5,5;" x1="1197.2271" x2="1197.2271" y1="118.5938" y2="603.9844"/></g><g class="participant participant-head" data-participant="User"><text fill="#000000" font-family="sans-serif" font-size="14" lengthAdjust="spacing" textLength="103.0996" x="5" y="115.292">&#1055;&#1086;&#1083;&#1100;&#1079;&#1086;&#1074;&#1072;&#1090;&#1077;&#1083;&#1100;</text><ellipse cx="59.5498" cy="50.7969" fill="#E2E2F0" rx="8" ry="8" style="stroke:#181818;stroke-width:0.5;"/><path d="M59.5498,58.7969 L59.5498,85.7969 M46.5498,66.7969 L72.5498,66.7969 M59.5498,85.7969 L46.5498,100.7969 M59.5498,85.7969 L72.5498,100.7969" fill="none" style="stroke:#181818;stroke-width:0.5;"/></g><g class="participant participant-tail" data-participant="User"><text fill="#000000" font-family="sans-serif" font-size="14" lengthAdjust="spacing" textLength="103.0996" x="5" y="615.9795">&#1055;&#1086;&#1083;&#1100;&#1079;&#1086;&#1074;&#1072;&#1090;&#1077;&#1083;&#1100;</text><ellipse cx="59.5498" cy="627.7813" fill="#E2E2F0" rx="8" ry="8" style="stroke:#181818;stroke-width:0.5;"/><path d="M59.5498,635.7813 L59.5498,662.7813 M46.5498,643.7813 L72.5498,643.7813 M59.5498,662.7813 L46.5498,677.7813 M59.5498,662.7813 L72.5498,677.7813" fill="none" style="stroke:#181818;stroke-width:0.5;"/></g><g class="participant participant-head" data-participant="UI"><rect fill="#E2E2F0" height="30.2969" rx="2.5" ry="2.5" style="stroke:#181818;stroke-width:0.5;" width="28.376" x="382.7036" y="87.2969"/><text fill="#000000" font-family="sans-serif" font-size="14" lengthAdjust="spacing" textLength="14.376" x="389.7036" y="107.292">UI</text></g><g class="participant participant-tail" data-participant="UI"><rect fill="#E2E2F0" height="30.2969" rx="2.5" ry="2.5" style="stroke:#181818;stroke-width:0.5;" width="28.376" x="382.7036" y="602.9844"/><text fill="#000000" font-family="sans-serif" font-size="14" lengthAdjust="spacing" textLength="14.376" x="389.7036" y="622.9795">UI</text></g><g class="participant participant-head" data-participant="Controller"><rect fill="#E2E2F0" height="30.2969" rx="2.5" ry="2.5" style="stroke:#181818;stroke-width:0.5;" width="102.6621" x="641.0605" y="87.2969"/><text fill="#000000" font-family="sans-serif" font-size="14" lengthAdjust="spacing" textLength="88.6621" x="648.0605" y="107.292">&#1050;&#1086;&#1085;&#1090;&#1088;&#1086;&#1083;&#1083;&#1077;&#1088;</text></g><g class="participant participant-tail" data-participant="Controller"><rect fill="#E2E2F0" height="30.2969" rx="2.5" ry="2.5" style="stroke:#181818;stroke-width:0.5;" width="102.6621" x="641.0605" y="602.9844"/><text fill="#000000" font-family="sans-serif" font-size="14" lengthAdjust="spacing" textLength="88.6621" x="648.0605" y="622.9795">&#1050;&#1086;&#1085;&#1090;&#1088;&#1086;&#1083;&#1083;&#1077;&#1088;</text></g><g class="participant participant-head" data-participant="TaskService"><rect fill="#E2E2F0" height="30.2969" rx="2.5" ry="2.5" style="stroke:#181818;stroke-width:0.5;" width="113.3262" x="878.7334" y="87.2969"/><text fill="#000000" font-family="sans-serif" font-size="14" lengthAdjust="spacing" textLength="99.3262" x="885.7334" y="107.292">&#1057;&#1077;&#1088;&#1074;&#1080;&#1089; &#1079;&#1072;&#1076;&#1072;&#1095;</text></g><g class="participant participant-tail" data-participant="TaskService"><rect fill="#E2E2F0" height="30.2969" rx="2.5" ry="2.5" style="stroke:#181818;stroke-width:0.5;" width="113.3262" x="878.7334" y="602.9844"/><text fill="#000000" font-family="sans-serif" font-size="14" lengthAdjust="spacing" textLength="99.3262" x="885.7334" y="622.9795">&#1057;&#1077;&#1088;&#1074;&#1080;&#1089; &#1079;&#1072;&#1076;&#1072;&#1095;</text></g><g class="participant participant-head" data-participant="DB"><text fill="#000000" font-family="sans-serif" font-size="14" lengthAdjust="spacing" textLength="94.5615" x="1147.2271" y="115.292">&#1041;&#1072;&#1079;&#1072; &#1076;&#1072;&#1085;&#1085;&#1099;&#1093;</text><path d="M1179.5078,66.2969 C1179.5078,56.2969 1197.5078,56.2969 1197.5078,56.2969 C1197.5078,56.2969 1215.5078,56.2969 1215.5078,66.2969 L1215.5078,92.2969 C1215.5078,102.2969 1197.5078,102.2969 1197.5078,102.2969 C1197.5078,102.2969 1179.5078,102.2969 1179.5078,92.2969 L1179.5078,66.2969" fill="#E2E2F0" style="stroke:#181818;stroke-width:0.5;"/><path d="M1179.5078,66.2969 C1179.5078,76.2969 1197.5078,76.2969 1197.5078,76.2969 C1197.5078,76.2969 1215.5078,76.2969 1215.5078,66.2969" fill="none" style="stroke:#181818;stroke-width:0.5;"/></g><g class="participant participant-tail" data-participant="DB"><text fill="#000000" font-family="sans-serif" font-size="14" lengthAdjust="spacing" textLength="94.5615" x="1147.2271" y="615.9795">&#1041;&#1072;&#1079;&#1072; &#1076;&#1072;&#1085;&#1085;&#1099;&#1093;</text><path d="M1179.5078,629.2813 C1179.5078,619.2813 1197.5078,619.2813 1197.5078,619.2813 C1197.5078,619.2813 1215.5078,619.2813 1215.5078,629.2813 L1215.5078,655.2813 C1215.5078,665.2813 1197.5078,665.2813 1197.5078,665.2813 C1197.5078,665.2813 1179.5078,665.2813 1179.5078,655.2813 L1179.5078,629.2813" fill="#E2E2F0" style="stroke:#181818;stroke-width:0.5;"/><path d="M1179.5078,629.2813 C1179.5078,639.2813 1197.5078,639.2813 1197.5078,639.2813 C1197.5078,639.2813 1215.5078,639.2813 1215.5078,629.2813" fill="none" style="stroke:#181818;stroke-width:0.5;"/></g><g><title>............</title><rect fill="#FFFFFF" height="421.125" style="stroke:#181818;stroke-width:1;" width="10" x="54.5498" y="164.8594"/></g><g><title>UI</title><rect fill="#FFFFFF" height="29.1328" style="stroke:#181818;stroke-width:1;" width="10" x="391.8916" y="164.8594"/></g><g><title>UI</title><rect fill="#FFFFFF" height="128.5313" style="stroke:#181818;stroke-width:1;" width="10" x="391.8916" y="457.4531"/></g><g><title>..........</title><rect fill="#FFFFFF" height="263.4609" style="stroke:#181818;stroke-width:1;" width="10" x="687.3916" y="193.9922"/></g><g><title>...... .....</title><rect fill="#FFFFFF" height="190.0625" style="stroke:#181818;stroke-width:1;" width="10" x="930.3965" y="223.125"/></g><g><title>.... ......</title><rect fill="#FFFFFF" height="29.1328" style="stroke:#181818;stroke-width:1;" width="10" x="1192.5078" y="312.7891"/></g><g class="message" data-participant-1="User" data-participant-2="UI"><polygon fill="#181818" points="379.8916,160.8594,389.8916,164.8594,379.8916,168.8594,383.8916,164.8594" style="stroke:#181818;stroke-width:1;"/><line style="stroke:#181818;stroke-width:1;" x1="64.5498" x2="385.8916" y1="164.8594" y2="164.8594"/><text fill="#000000" font-family="sans-serif" font-size="13" lengthAdjust="spacing" textLength="145.3867" x="71.5498" y="144.6606">&#1042;&#1099;&#1073;&#1080;&#1088;&#1072;&#1077;&#1090; &#1082;&#1072;&#1090;&#1077;&#1075;&#1086;&#1088;&#1080;&#1102;</text><text fill="#000000" font-family="sans-serif" font-size="13" lengthAdjust="spacing" textLength="155.3589" x="71.5498" y="159.7935">&#1074; &#1074;&#1099;&#1087;&#1072;&#1076;&#1072;&#1102;&#1097;&#1077;&#1084; &#1089;&#1087;&#1080;&#1089;&#1082;&#1077;</text></g><g class="message" data-participant-1="UI" data-participant-2="Controller"><polygon fill="#181818" points="675.3916,189.9922,685.3916,193.9922,675.3916,197.9922,679.3916,193.9922" style="stroke:#181818;stroke-width:1;"/><line style="stroke:#181818;stroke-width:1;" x1="396.8916" x2="681.3916" y1="193.9922" y2="193.9922"/><text fill="#000000" font-family="sans-serif" font-size="13" lengthAdjust="spacing" textLength="266.5" x="403.8916" y="188.9263">GET /api/tasks?categoryId={categoryId}</text></g><g class="message" data-participant-1="Controller" data-participant-2="TaskService"><polygon fill="#181818" points="918.3965,219.125,928.3965,223.125,918.3965,227.125,922.3965,223.125" style="stroke:#181818;stroke-width:1;"/><line style="stroke:#181818;stroke-width:1;" x1="697.3916" x2="924.3965" y1="223.125" y2="223.125"/><text fill="#000000" font-family="sans-serif" font-size="13" lengthAdjust="spacing" textLength="214.0049" x="704.3916" y="218.0591">getTasksByCategory(categoryId)</text></g><g class="message" data-participant-1="TaskService" data-participant-2="DB"><polygon fill="#181818" points="1180.5078,308.7891,1190.5078,312.7891,1180.5078,316.7891,1184.5078,312.7891" style="stroke:#181818;stroke-width:1;"/><line style="stroke:#181818;stroke-width:1;" x1="940.3965" x2="1186.5078" y1="312.7891" y2="312.7891"/><text fill="#000000" font-family="sans-serif" font-size="13" lengthAdjust="spacing" textLength="68.8022" x="947.3965" y="247.1919">SELECT t.*</text><text fill="#000000" font-family="sans-serif" font-size="13" lengthAdjust="spacing" textLength="88.3022" x="947.3965" y="262.3247">FROM Tasks t</text><text fill="#000000" font-family="sans-serif" font-size="13" lengthAdjust="spacing" textLength="154.9146" x="947.3965" y="277.4575">JOIN Task_Categories tc</text><text fill="#000000" font-family="sans-serif" font-size="13" lengthAdjust="spacing" textLength="160.3101" x="951.5288" y="292.5903">ON t.task_id = tc.task_id</text><text fill="#000000" font-family="sans-serif" font-size="13" lengthAdjust="spacing" textLength="233.1113" x="947.3965" y="307.7231">WHERE tc.category_id = categoryId</text></g><g class="message" data-participant-1="DB" data-participant-2="TaskService"><polygon fill="#181818" points="951.3965,337.9219,941.3965,341.9219,951.3965,345.9219,947.3965,341.9219" style="stroke:#181818;stroke-width:1;"/><line style="stroke:#181818;stroke-width:1;stroke-dasharray:2,2;" x1="945.3965" x2="1196.5078" y1="341.9219" y2="341.9219"/><text fill="#000000" font-family="sans-serif" font-size="13" lengthAdjust="spacing" textLength="56.8623" x="957.3965" y="336.856">tasksList</text></g><g class="message" data-participant-1="TaskService" data-participant-2="TaskService"><line style="stroke:#181818;stroke-width:1;" x1="940.3965" x2="982.3965" y1="371.0547" y2="371.0547"/><line style="stroke:#181818;stroke-width:1;" x1="982.3965" x2="982.3965" y1="371.0547" y2="384.0547"/><line style="stroke:#181818;stroke-width:1;" x1="941.3965" x2="982.3965" y1="384.0547" y2="384.0547"/><polygon fill="#181818" points="951.3965,380.0547,941.3965,384.0547,951.3965,388.0547,947.3965,384.0547" style="stroke:#181818;stroke-width:1;"/><text fill="#000000" font-family="sans-serif" font-size="13" lengthAdjust="spacing" textLength="216.2837" x="947.3965" y="365.9888">formatTasksForDisplay(tasksList)</text></g><g class="message" data-participant-1="TaskService" data-participant-2="Controller"><polygon fill="#181818" points="708.3916,409.1875,698.3916,413.1875,708.3916,417.1875,704.3916,413.1875" style="stroke:#181818;stroke-width:1;"/><line style="stroke:#181818;stroke-width:1;stroke-dasharray:2,2;" x1="702.3916" x2="934.3965" y1="413.1875" y2="413.1875"/><text fill="#000000" font-family="sans-serif" font-size="13" lengthAdjust="spacing" textLength="189.7314" x="714.3916" y="408.1216">TasksListResponse(tasksList)</text></g><g class="message" data-participant-1="Controller" data-participant-2="UI"><polygon fill="#181818" points="412.8916,453.4531,402.8916,457.4531,412.8916,461.4531,408.8916,457.4531" style="stroke:#181818;stroke-width:1;"/><line style="stroke:#181818;stroke-width:1;stroke-dasharray:2,2;" x1="406.8916" x2="691.3916" y1="457.4531" y2="457.4531"/><text fill="#000000" font-family="sans-serif" font-size="13" lengthAdjust="spacing" textLength="47.7026" x="418.8916" y="437.2544">200 OK</text><text fill="#000000" font-family="sans-serif" font-size="13" lengthAdjust="spacing" textLength="81.7324" x="418.8916" y="452.3872">{tasks: [...]}</text></g><g class="message" data-participant-1="UI" data-participant-2="UI"><line style="stroke:#181818;stroke-width:1;" x1="401.8916" x2="443.8916" y1="486.5859" y2="486.5859"/><line style="stroke:#181818;stroke-width:1;" x1="443.8916" x2="443.8916" y1="486.5859" y2="499.5859"/><line style="stroke:#181818;stroke-width:1;" x1="402.8916" x2="443.8916" y1="499.5859" y2="499.5859"/><polygon fill="#181818" points="412.8916,495.5859,402.8916,499.5859,412.8916,503.5859,408.8916,499.5859" style="stroke:#181818;stroke-width:1;"/><text fill="#000000" font-family="sans-serif" font-size="13" lengthAdjust="spacing" textLength="223.9834" x="408.8916" y="481.52">&#1054;&#1095;&#1080;&#1089;&#1090;&#1080;&#1090;&#1100; &#1090;&#1077;&#1082;&#1091;&#1097;&#1080;&#1081; &#1089;&#1087;&#1080;&#1089;&#1086;&#1082; &#1079;&#1072;&#1076;&#1072;&#1095;</text></g><g class="message" data-participant-1="UI" data-participant-2="UI"><line style="stroke:#181818;stroke-width:1;" x1="401.8916" x2="443.8916" y1="543.8516" y2="543.8516"/><line style="stroke:#181818;stroke-width:1;" x1="443.8916" x2="443.8916" y1="543.8516" y2="556.8516"/><line style="stroke:#181818;stroke-width:1;" x1="402.8916" x2="443.8916" y1="556.8516" y2="556.8516"/><polygon fill="#181818" points="412.8916,552.8516,402.8916,556.8516,412.8916,560.8516,408.8916,556.8516" style="stroke:#181818;stroke-width:1;"/><text fill="#000000" font-family="sans-serif" font-size="13" lengthAdjust="spacing" textLength="167.1909" x="408.8916" y="523.6528">&#1055;&#1086;&#1082;&#1072;&#1079;&#1072;&#1090;&#1100; &#1090;&#1086;&#1083;&#1100;&#1082;&#1086; &#1079;&#1072;&#1076;&#1072;&#1095;&#1080;</text><text fill="#000000" font-family="sans-serif" font-size="13" lengthAdjust="spacing" textLength="151.0171" x="408.8916" y="538.7856">&#1074;&#1099;&#1073;&#1088;&#1072;&#1085;&#1085;&#1086;&#1081; &#1082;&#1072;&#1090;&#1077;&#1075;&#1086;&#1088;&#1080;&#1080;</text></g><g class="message" data-participant-1="UI" data-participant-2="User"><polygon fill="#181818" points="70.5498,581.9844,60.5498,585.9844,70.5498,589.9844,66.5498,585.9844" style="stroke:#181818;stroke-width:1;"/><line style="stroke:#181818;stroke-width:1;stroke-dasharray:2,2;" x1="64.5498" x2="395.8916" y1="585.9844" y2="585.9844"/><text fill="#000000" font-family="sans-serif" font-size="13" lengthAdjust="spacing" textLength="303.3418" x="76.5498" y="580.9185">&#1054;&#1090;&#1086;&#1073;&#1088;&#1072;&#1078;&#1105;&#1085; &#1086;&#1090;&#1092;&#1080;&#1083;&#1100;&#1090;&#1088;&#1086;&#1074;&#1072;&#1085;&#1085;&#1099;&#1081; &#1089;&#1087;&#1080;&#1089;&#1086;&#1082; &#1079;&#1072;&#1076;&#1072;&#1095;</text></g><!--SRC=[VLHTQnD157tVNt79KoiqBJu6gf2Fwcfj84tnmPKo9cDPZBjXPoY48hJneqXBI_leWoBu0seqkerc-nVk_2Flp6woir4aBtidvvnxvdwCz6MF0tx167-fKpLKXtYbtc6ipW5_uXL-f_0Oy0OJm0bz3t6Ctp0XM8onux2E32CeuITCD9ye2Ouo6CKbO09s18-SFekat_7xB91Gsd7JFzpYCNuWzjHu83NwZTMX0TR2G4PXhxUeWvyrX1B6wiYoQpXj9bviysZVxt2dooHxnWGdnWM120WQYLFATgBU6dozwZZQAQpS8MCLm4jrWbz9cGf2MOP_NL-TUG6E04U4kybIdwdt1FWDweYEo1Hnnhf6_ZwJF2r47hcKqDNfykjLu5wZ3QkixwzAyY_kTWYv5qO3jxj-a7-_ShhSrfb_MuLoyc-Tmof71VQurB6e3cgPvb8klfpBsJLqh40BrgiLs6viDcfjaELRNh3HQZuo107I2nuqtIqJxMOPV4xd7I-0vXRXzULs_Iwiqzaiy8B7znkjXZwPcKaXkRNS6NMhNeMLnOkPectwGje5qfrTC5yWFG-Zbomjo4OOrNtHxx71qbngUO6zqB3s3DVYeXy6WjjCoqMXbdPlidcxlRO6pOTUS63e5NXIBfUV5XfjDzVkVZf4PcO_gcCzTZIcCQtHAPXvdQZND9OnNkTZcU34sXTRGI_o9DsHcKAwsHFz0imf6ElXrnjYzeCMYM3N_teYjBOM5xfOP53hfQGVwWAdGC2XUcCzF-O1ILVpFvQB2r08ATCV]--></g></svg>