<svg xmlns="http://www.w3.org/2000/svg" xmlns:xlink="http://www.w3.org/1999/xlink" contentStyleType="text/css" data-diagram-type="SEQUENCE" height="745px" preserveAspectRatio="none" style="width:1025px;height:745px;background:#FFFFFF;" version="1.1" viewBox="0 0 1025 745" width="1025px" zoomAndPan="magnify"><title>&#1044;&#1086;&#1073;&#1072;&#1074;&#1083;&#1077;&#1085;&#1080;&#1077; &#1085;&#1086;&#1074;&#1086;&#1081; &#1079;&#1072;&#1076;&#1072;&#1095;&#1080;</title><defs/><g><text fill="#000000" font-family="sans-serif" font-size="14" font-weight="bold" lengthAdjust="spacing" textLength="213.9785" x="406.8237" y="27.9951">&#1044;&#1086;&#1073;&#1072;&#1074;&#1083;&#1077;&#1085;&#1080;&#1077; &#1085;&#1086;&#1074;&#1086;&#1081; &#1079;&#1072;&#1076;&#1072;&#1095;&#1080;</text><g><title>............</title><rect fill="#FFFFFF" height="490.0625" style="stroke:#181818;stroke-width:1;" width="10" x="69.5498" y="164.8594"/></g><g><title>UI</title><rect fill="#FFFFFF" height="44.2656" style="stroke:#181818;stroke-width:1;" width="10" x="327.5752" y="164.8594"/></g><g><title>UI</title><rect fill="#FFFFFF" height="86.3984" style="stroke:#181818;stroke-width:1;" width="10" x="327.5752" y="436.1875"/></g><g><title>UI</title><rect fill="#FFFFFF" height="29.1328" style="stroke:#181818;stroke-width:1;" width="10" x="327.5752" y="610.7891"/></g><g><title>..........</title><rect fill="#FFFFFF" height="227.0625" style="stroke:#181818;stroke-width:1;" width="10" x="534.2524" y="209.125"/></g><g><title>...... .....</title><rect fill="#FFFFFF" height="153.6641" style="stroke:#181818;stroke-width:1;" width="10" x="737.3516" y="238.2578"/></g><g><title>.... ......</title><rect fill="#FFFFFF" height="29.1328" style="stroke:#181818;stroke-width:1;" width="10" x="953.3452" y="333.6563"/></g><rect fill="none" height="352.5313" style="stroke:#000000;stroke-width:1.5;" width="1008.626" x="10" y="295.3906"/><g><title>............</title><rect fill="#000000" fill-opacity="0.00000" height="546.3281" width="8" x="70.5498" y="118.5938"/><line style="stroke:#181818;stroke-width:0.5;stroke-dasharray:5,5;" x1="74" x2="74" y1="118.5938" y2="664.9219"/></g><g><title>UI</title><rect fill="#000000" fill-opacity="0.00000" height="546.3281" width="8" x="328.5752" y="118.5938"/><line style="stroke:#181818;stroke-width:0.5;stroke-dasharray:5,5;" x1="332.3872" x2="332.3872" y1="118.5938" y2="664.9219"/></g><g><title>..........</title><rect fill="#000000" fill-opacity="0.00000" height="546.3281" width="8" x="535.2524" y="118.5938"/><line style="stroke:#181818;stroke-width:0.5;stroke-dasharray:5,5;" x1="538.9214" x2="538.9214" y1="118.5938" y2="664.9219"/></g><g><title>...... .....</title><rect fill="#000000" fill-opacity="0.00000" height="546.3281" width="8" x="738.3516" y="118.5938"/><line style="stroke:#181818;stroke-width:0.5;stroke-dasharray:5,5;" x1="741.6885" x2="741.6885" y1="118.5938" y2="664.9219"/></g><g><title>.... ......</title><rect fill="#000000" fill-opacity="0.00000" height="546.3281" width="8" x="954.3452" y="118.5938"/><line style="stroke:#181818;stroke-width:0.5;stroke-dasharray:5,5;" x1="958.0645" x2="958.0645" y1="118.5938" y2="664.9219"/></g><g class="participant participant-head" data-participant="User"><text fill="#000000" font-family="sans-serif" font-size="14" lengthAdjust="spacing" textLength="103.0996" x="20" y="115.292">&#1055;&#1086;&#1083;&#1100;&#1079;&#1086;&#1074;&#1072;&#1090;&#1077;&#1083;&#1100;</text><ellipse cx="74.5498" cy="50.7969" fill="#E2E2F0" rx="8" ry="8" style="stroke:#181818;stroke-width:0.5;"/><path d="M74.5498,58.7969 L74.5498,85.7969 M61.5498,66.7969 L87.5498,66.7969 M74.5498,85.7969 L61.5498,100.7969 M74.5498,85.7969 L87.5498,100.7969" fill="none" style="stroke:#181818;stroke-width:0.5;"/></g><g class="participant participant-tail" data-participant="User"><text fill="#000000" font-family="sans-serif" font-size="14" lengthAdjust="spacing" textLength="103.0996" x="20" y="676.917">&#1055;&#1086;&#1083;&#1100;&#1079;&#1086;&#1074;&#1072;&#1090;&#1077;&#1083;&#1100;</text><ellipse cx="74.5498" cy="688.7188" fill="#E2E2F0" rx="8" ry="8" style="stroke:#181818;stroke-width:0.5;"/><path d="M74.5498,696.7188 L74.5498,723.7188 M61.5498,704.7188 L87.5498,704.7188 M74.5498,723.7188 L61.5498,738.7188 M74.5498,723.7188 L87.5498,738.7188" fill="none" style="stroke:#181818;stroke-width:0.5;"/></g><g class="participant participant-head" data-participant="UI"><rect fill="#E2E2F0" height="30.2969" rx="2.5" ry="2.5" style="stroke:#181818;stroke-width:0.5;" width="28.376" x="318.3872" y="87.2969"/><text fill="#000000" font-family="sans-serif" font-size="14" lengthAdjust="spacing" textLength="14.376" x="325.3872" y="107.292">UI</text></g><g class="participant participant-tail" data-participant="UI"><rect fill="#E2E2F0" height="30.2969" rx="2.5" ry="2.5" style="stroke:#181818;stroke-width:0.5;" width="28.376" x="318.3872" y="663.9219"/><text fill="#000000" font-family="sans-serif" font-size="14" lengthAdjust="spacing" textLength="14.376" x="325.3872" y="683.917">UI</text></g><g class="participant participant-head" data-participant="Controller"><rect fill="#E2E2F0" height="30.2969" rx="2.5" ry="2.5" style="stroke:#181818;stroke-width:0.5;" width="102.6621" x="487.9214" y="87.2969"/><text fill="#000000" font-family="sans-serif" font-size="14" lengthAdjust="spacing" textLength="88.6621" x="494.9214" y="107.292">&#1050;&#1086;&#1085;&#1090;&#1088;&#1086;&#1083;&#1083;&#1077;&#1088;</text></g><g class="participant participant-tail" data-participant="Controller"><rect fill="#E2E2F0" height="30.2969" rx="2.5" ry="2.5" style="stroke:#181818;stroke-width:0.5;" width="102.6621" x="487.9214" y="663.9219"/><text fill="#000000" font-family="sans-serif" font-size="14" lengthAdjust="spacing" textLength="88.6621" x="494.9214" y="683.917">&#1050;&#1086;&#1085;&#1090;&#1088;&#1086;&#1083;&#1083;&#1077;&#1088;</text></g><g class="participant participant-head" data-participant="TaskService"><rect fill="#E2E2F0" height="30.2969" rx="2.5" ry="2.5" style="stroke:#181818;stroke-width:0.5;" width="113.3262" x="685.6885" y="87.2969"/><text fill="#000000" font-family="sans-serif" font-size="14" lengthAdjust="spacing" textLength="99.3262" x="692.6885" y="107.292">&#1057;&#1077;&#1088;&#1074;&#1080;&#1089; &#1079;&#1072;&#1076;&#1072;&#1095;</text></g><g class="participant participant-tail" data-participant="TaskService"><rect fill="#E2E2F0" height="30.2969" rx="2.5" ry="2.5" style="stroke:#181818;stroke-width:0.5;" width="113.3262" x="685.6885" y="663.9219"/><text fill="#000000" font-family="sans-serif" font-size="14" lengthAdjust="spacing" textLength="99.3262" x="692.6885" y="683.917">&#1057;&#1077;&#1088;&#1074;&#1080;&#1089; &#1079;&#1072;&#1076;&#1072;&#1095;</text></g><g class="participant participant-head" data-participant="DB"><text fill="#000000" font-family="sans-serif" font-size="14" lengthAdjust="spacing" textLength="94.5615" x="908.0645" y="115.292">&#1041;&#1072;&#1079;&#1072; &#1076;&#1072;&#1085;&#1085;&#1099;&#1093;</text><path d="M940.3452,66.2969 C940.3452,56.2969 958.3452,56.2969 958.3452,56.2969 C958.3452,56.2969 976.3452,56.2969 976.3452,66.2969 L976.3452,92.2969 C976.3452,102.2969 958.3452,102.2969 958.3452,102.2969 C958.3452,102.2969 940.3452,102.2969 940.3452,92.2969 L940.3452,66.2969" fill="#E2E2F0" style="stroke:#181818;stroke-width:0.5;"/><path d="M940.3452,66.2969 C940.3452,76.2969 958.3452,76.2969 958.3452,76.2969 C958.3452,76.2969 976.3452,76.2969 976.3452,66.2969" fill="none" style="stroke:#181818;stroke-width:0.5;"/></g><g class="participant participant-tail" data-participant="DB"><text fill="#000000" font-family="sans-serif" font-size="14" lengthAdjust="spacing" textLength="94.5615" x="908.0645" y="676.917">&#1041;&#1072;&#1079;&#1072; &#1076;&#1072;&#1085;&#1085;&#1099;&#1093;</text><path d="M940.3452,690.2188 C940.3452,680.2188 958.3452,680.2188 958.3452,680.2188 C958.3452,680.2188 976.3452,680.2188 976.3452,690.2188 L976.3452,716.2188 C976.3452,726.2188 958.3452,726.2188 958.3452,726.2188 C958.3452,726.2188 940.3452,726.2188 940.3452,716.2188 L940.3452,690.2188" fill="#E2E2F0" style="stroke:#181818;stroke-width:0.5;"/><path d="M940.3452,690.2188 C940.3452,700.2188 958.3452,700.2188 958.3452,700.2188 C958.3452,700.2188 976.3452,700.2188 976.3452,690.2188" fill="none" style="stroke:#181818;stroke-width:0.5;"/></g><g><title>............</title><rect fill="#FFFFFF" height="490.0625" style="stroke:#181818;stroke-width:1;" width="10" x="69.5498" y="164.8594"/></g><g><title>UI</title><rect fill="#FFFFFF" height="44.2656" style="stroke:#181818;stroke-width:1;" width="10" x="327.5752" y="164.8594"/></g><g><title>UI</title><rect fill="#FFFFFF" height="86.3984" style="stroke:#181818;stroke-width:1;" width="10" x="327.5752" y="436.1875"/></g><g><title>UI</title><rect fill="#FFFFFF" height="29.1328" style="stroke:#181818;stroke-width:1;" width="10" x="327.5752" y="610.7891"/></g><g><title>..........</title><rect fill="#FFFFFF" height="227.0625" style="stroke:#181818;stroke-width:1;" width="10" x="534.2524" y="209.125"/></g><g><title>...... .....</title><rect fill="#FFFFFF" height="153.6641" style="stroke:#181818;stroke-width:1;" width="10" x="737.3516" y="238.2578"/></g><g><title>.... ......</title><rect fill="#FFFFFF" height="29.1328" style="stroke:#181818;stroke-width:1;" width="10" x="953.3452" y="333.6563"/></g><g class="message" data-participant-1="User" data-participant-2="UI"><polygon fill="#181818" points="315.5752,160.8594,325.5752,164.8594,315.5752,168.8594,319.5752,164.8594" style="stroke:#181818;stroke-width:1;"/><line style="stroke:#181818;stroke-width:1;" x1="79.5498" x2="321.5752" y1="164.8594" y2="164.8594"/><text fill="#000000" font-family="sans-serif" font-size="13" lengthAdjust="spacing" textLength="157.9868" x="86.5498" y="144.6606">&#1042;&#1074;&#1086;&#1076;&#1080;&#1090; &#1076;&#1072;&#1085;&#1085;&#1099;&#1077; &#1079;&#1072;&#1076;&#1072;&#1095;&#1080;</text><text fill="#000000" font-family="sans-serif" font-size="13" lengthAdjust="spacing" textLength="234.0254" x="86.5498" y="159.7935">(&#1079;&#1072;&#1075;&#1086;&#1083;&#1086;&#1074;&#1086;&#1082;, &#1086;&#1087;&#1080;&#1089;&#1072;&#1085;&#1080;&#1077;, &#1087;&#1088;&#1080;&#1086;&#1088;&#1080;&#1090;&#1077;&#1090;)</text></g><g class="message" data-participant-1="UI" data-participant-2="Controller"><polygon fill="#181818" points="522.2524,205.125,532.2524,209.125,522.2524,213.125,526.2524,209.125" style="stroke:#181818;stroke-width:1;"/><line style="stroke:#181818;stroke-width:1;" x1="332.5752" x2="528.2524" y1="209.125" y2="209.125"/><text fill="#000000" font-family="sans-serif" font-size="13" lengthAdjust="spacing" textLength="101.1245" x="339.5752" y="188.9263">POST /api/tasks</text><text fill="#000000" font-family="sans-serif" font-size="13" lengthAdjust="spacing" textLength="177.6772" x="339.5752" y="204.0591">{title, description, priority}</text></g><g class="message" data-participant-1="Controller" data-participant-2="TaskService"><polygon fill="#181818" points="725.3516,234.2578,735.3516,238.2578,725.3516,242.2578,729.3516,238.2578" style="stroke:#181818;stroke-width:1;"/><line style="stroke:#181818;stroke-width:1;" x1="544.2524" x2="731.3516" y1="238.2578" y2="238.2578"/><text fill="#000000" font-family="sans-serif" font-size="13" lengthAdjust="spacing" textLength="140.3086" x="551.2524" y="233.1919">createTask(taskData)</text></g><g class="message" data-participant-1="TaskService" data-participant-2="TaskService"><line style="stroke:#181818;stroke-width:1;" x1="747.3516" x2="789.3516" y1="267.3906" y2="267.3906"/><line style="stroke:#181818;stroke-width:1;" x1="789.3516" x2="789.3516" y1="267.3906" y2="280.3906"/><line style="stroke:#181818;stroke-width:1;" x1="748.3516" x2="789.3516" y1="280.3906" y2="280.3906"/><polygon fill="#181818" points="758.3516,276.3906,748.3516,280.3906,758.3516,284.3906,754.3516,280.3906" style="stroke:#181818;stroke-width:1;"/><text fill="#000000" font-family="sans-serif" font-size="13" lengthAdjust="spacing" textLength="181.9937" x="754.3516" y="262.3247">validateTaskData(taskData)</text></g><path d="M10,295.3906 L74.4429,295.3906 L74.4429,302.5234 L64.4429,312.5234 L10,312.5234 L10,295.3906" fill="#EEEEEE" style="stroke:#000000;stroke-width:1.5;"/><rect fill="none" height="352.5313" style="stroke:#000000;stroke-width:1.5;" width="1008.626" x="10" y="295.3906"/><text fill="#000000" font-family="sans-serif" font-size="13" font-weight="bold" lengthAdjust="spacing" textLength="19.4429" x="25" y="308.4575">alt</text><text fill="#000000" font-family="sans-serif" font-size="11" font-weight="bold" lengthAdjust="spacing" textLength="133.332" x="89.4429" y="307.6011">[&#1044;&#1072;&#1085;&#1085;&#1099;&#1077; &#1082;&#1086;&#1088;&#1088;&#1077;&#1082;&#1090;&#1085;&#1099;]</text><g class="message" data-participant-1="TaskService" data-participant-2="DB"><polygon fill="#181818" points="941.3452,329.6563,951.3452,333.6563,941.3452,337.6563,945.3452,333.6563" style="stroke:#181818;stroke-width:1;"/><line style="stroke:#181818;stroke-width:1;" x1="747.3516" x2="947.3452" y1="333.6563" y2="333.6563"/><text fill="#000000" font-family="sans-serif" font-size="13" lengthAdjust="spacing" textLength="146.5166" x="754.3516" y="328.5903">INSERT INTO Tasks(...)</text></g><g class="message" data-participant-1="DB" data-participant-2="TaskService"><polygon fill="#181818" points="758.3516,358.7891,748.3516,362.7891,758.3516,366.7891,754.3516,362.7891" style="stroke:#181818;stroke-width:1;"/><line style="stroke:#181818;stroke-width:1;stroke-dasharray:2,2;" x1="752.3516" x2="957.3452" y1="362.7891" y2="362.7891"/><text fill="#000000" font-family="sans-serif" font-size="13" lengthAdjust="spacing" textLength="39.4507" x="764.3516" y="357.7231">taskId</text></g><g class="message" data-participant-1="TaskService" data-participant-2="Controller"><polygon fill="#181818" points="555.2524,387.9219,545.2524,391.9219,555.2524,395.9219,551.2524,391.9219" style="stroke:#181818;stroke-width:1;"/><line style="stroke:#181818;stroke-width:1;stroke-dasharray:2,2;" x1="549.2524" x2="741.3516" y1="391.9219" y2="391.9219"/><text fill="#000000" font-family="sans-serif" font-size="13" lengthAdjust="spacing" textLength="101.9243" x="561.2524" y="386.856">Success(taskId)</text></g><g class="message" data-participant-1="Controller" data-participant-2="UI"><polygon fill="#181818" points="348.5752,432.1875,338.5752,436.1875,348.5752,440.1875,344.5752,436.1875" style="stroke:#181818;stroke-width:1;"/><line style="stroke:#181818;stroke-width:1;stroke-dasharray:2,2;" x1="342.5752" x2="538.2524" y1="436.1875" y2="436.1875"/><text fill="#000000" font-family="sans-serif" font-size="13" lengthAdjust="spacing" textLength="80.6787" x="354.5752" y="415.9888">201 Created</text><text fill="#000000" font-family="sans-serif" font-size="13" lengthAdjust="spacing" textLength="55.9927" x="354.5752" y="431.1216">{taskId}</text></g><g class="message" data-participant-1="UI" data-participant-2="UI"><line style="stroke:#181818;stroke-width:1;" x1="337.5752" x2="379.5752" y1="465.3203" y2="465.3203"/><line style="stroke:#181818;stroke-width:1;" x1="379.5752" x2="379.5752" y1="465.3203" y2="478.3203"/><line style="stroke:#181818;stroke-width:1;" x1="338.5752" x2="379.5752" y1="478.3203" y2="478.3203"/><polygon fill="#181818" points="348.5752,474.3203,338.5752,478.3203,348.5752,482.3203,344.5752,478.3203" style="stroke:#181818;stroke-width:1;"/><text fill="#000000" font-family="sans-serif" font-size="13" lengthAdjust="spacing" textLength="160.875" x="344.5752" y="460.2544">&#1054;&#1073;&#1085;&#1086;&#1074;&#1080;&#1090;&#1100; &#1089;&#1087;&#1080;&#1089;&#1086;&#1082; &#1079;&#1072;&#1076;&#1072;&#1095;</text></g><g class="message" data-participant-1="UI" data-participant-2="User"><polygon fill="#181818" points="90.5498,518.5859,80.5498,522.5859,90.5498,526.5859,86.5498,522.5859" style="stroke:#181818;stroke-width:1;"/><line style="stroke:#181818;stroke-width:1;stroke-dasharray:2,2;" x1="84.5498" x2="331.5752" y1="522.5859" y2="522.5859"/><text fill="#000000" font-family="sans-serif" font-size="13" lengthAdjust="spacing" textLength="159.1484" x="96.5498" y="502.3872">&#1055;&#1086;&#1082;&#1072;&#1079;&#1072;&#1090;&#1100; &#1091;&#1074;&#1077;&#1076;&#1086;&#1084;&#1083;&#1077;&#1085;&#1080;&#1077;</text><text fill="#000000" font-family="sans-serif" font-size="13" lengthAdjust="spacing" textLength="120.4277" x="96.5498" y="517.52">"&#1047;&#1072;&#1076;&#1072;&#1095;&#1072; &#1089;&#1086;&#1079;&#1076;&#1072;&#1085;&#1072;"</text></g><line style="stroke:#000000;stroke-width:1;stroke-dasharray:2,2;" x1="10" x2="1018.626" y1="531.5859" y2="531.5859"/><text fill="#000000" font-family="sans-serif" font-size="11" font-weight="bold" lengthAdjust="spacing" textLength="148.3926" x="15" y="541.7964">[&#1044;&#1072;&#1085;&#1085;&#1099;&#1077; &#1085;&#1077;&#1082;&#1086;&#1088;&#1088;&#1077;&#1082;&#1090;&#1085;&#1099;]</text><g class="message" data-participant-1="TaskService" data-participant-2="Controller"><polygon fill="#181818" points="550.2524,562.5234,540.2524,566.5234,550.2524,570.5234,546.2524,566.5234" style="stroke:#181818;stroke-width:1;"/><line style="stroke:#181818;stroke-width:1;stroke-dasharray:2,2;" x1="544.2524" x2="741.3516" y1="566.5234" y2="566.5234"/><text fill="#000000" font-family="sans-serif" font-size="13" lengthAdjust="spacing" textLength="179.0991" x="556.2524" y="561.4575">Error("&#1053;&#1077;&#1074;&#1077;&#1088;&#1085;&#1099;&#1077; &#1076;&#1072;&#1085;&#1085;&#1099;&#1077;")</text></g><g class="message" data-participant-1="Controller" data-participant-2="UI"><polygon fill="#181818" points="348.5752,606.7891,338.5752,610.7891,348.5752,614.7891,344.5752,610.7891" style="stroke:#181818;stroke-width:1;"/><line style="stroke:#181818;stroke-width:1;stroke-dasharray:2,2;" x1="342.5752" x2="538.2524" y1="610.7891" y2="610.7891"/><text fill="#000000" font-family="sans-serif" font-size="13" lengthAdjust="spacing" textLength="111.6045" x="354.5752" y="590.5903">400 Bad Request</text><text fill="#000000" font-family="sans-serif" font-size="13" lengthAdjust="spacing" textLength="48.5278" x="354.5752" y="605.7231">{error}</text></g><g class="message" data-participant-1="UI" data-participant-2="User"><polygon fill="#181818" points="90.5498,635.9219,80.5498,639.9219,90.5498,643.9219,86.5498,639.9219" style="stroke:#181818;stroke-width:1;"/><line style="stroke:#181818;stroke-width:1;stroke-dasharray:2,2;" x1="84.5498" x2="331.5752" y1="639.9219" y2="639.9219"/><text fill="#000000" font-family="sans-serif" font-size="13" lengthAdjust="spacing" textLength="199.6274" x="96.5498" y="634.856">&#1055;&#1086;&#1082;&#1072;&#1079;&#1072;&#1090;&#1100; &#1086;&#1096;&#1080;&#1073;&#1082;&#1080; &#1074;&#1072;&#1083;&#1080;&#1076;&#1072;&#1094;&#1080;&#1080;</text></g><!--SRC=[dLJDRjD04BxlKunyIgGq3OXJ3XpIz90BHKrwosMnzs1XsM5t6mcXIYM87ubUG4X8I81uWxGqgab9-WhZDs9c7IKR5uJK76plpimtttmp4nlRH05-mYMUunGly1fdkC0SPq2l9LqiyHVW5TakSLgynLm86TfCGu3VoNPTd96H_QR5X4Bf780qS6IK5YEfRHp68vbQ28vwfQ6tVOrVA7fHJ8fJHkFqnQbptCjIgxCagUBW3tQXX7dnqYFcOWRIFEqhFOv39I9fvHDf54Ly82To1FQagXR5- -Ary-zsX62ciFEGYBK1Fxg2Bmbxudcp69u2mxJcZZyTurAZUGFeUSEaN1G9I3StH3J79JzPdM9IP_7YiRIgL6XpwX6J7lFOrDs6nmVz0UpAKRnhgJ8pJ5zOxbS38cL27OzidAKD6Eauqx5zVY8YvGEklpqfnUQRatc2jI7KYhpvgiRfkYIWnzVNLdY7Mp1ZcSJH2eWnF30X4yl3vkawPtb8e1dEIIAw542_2dwtquRUe_x-uO1UWmDdDhLcirbttckEr4y-TpkmKsN597gHCtigyG3SobTfGlyu39KnjHAXNeNOqeLjliAhkRhVkWTxJjs8U-Y0Jgf0VfUsgg9MyhaS3pUctsXPo-sakIhEW8Qk73qQH6zKrs4SPxWMjxFpSXtAo5S4CYFt9VxUxFum3V3pUk2du92lLWin3QhCYQ1AZAfqTi4z_NztAshlQvtfMe1VAUR2RVeApjl6u4vDUD1gGKT6SAYU7IjZgH6ASzsf3_yMb0f-HnAUqsKE_BT8gkPEo3VqplycNHg9hSqbu3y0]--></g></svg>