<svg xmlns="http://www.w3.org/2000/svg" xmlns:xlink="http://www.w3.org/1999/xlink" contentStyleType="text/css" data-diagram-type="SEQUENCE" height="704px" preserveAspectRatio="none" style="width:1355px;height:704px;background:#FFFFFF;" version="1.1" viewBox="0 0 1355 704" width="1355px" zoomAndPan="magnify"><title>UC7: &#1053;&#1072;&#1089;&#1090;&#1088;&#1086;&#1080;&#1090;&#1100; &#1085;&#1072;&#1087;&#1086;&#1084;&#1080;&#1085;&#1072;&#1085;&#1080;&#1103;</title><defs/><g><text fill="#000000" font-family="sans-serif" font-size="14" font-weight="bold" lengthAdjust="spacing" textLength="237.9795" x="559.5437" y="27.9951">UC7: &#1053;&#1072;&#1089;&#1090;&#1088;&#1086;&#1080;&#1090;&#1100; &#1085;&#1072;&#1087;&#1086;&#1084;&#1080;&#1085;&#1072;&#1085;&#1080;&#1103;</text><rect fill="none" height="294.1328" style="stroke:#000000;stroke-width:1.5;" width="1338.0669" x="10" y="298.6875"/><g><title>............</title><rect fill="#000000" fill-opacity="0.00000" height="488.9297" width="8" x="70.5498" y="120.8906"/><line style="stroke:#181818;stroke-width:0.5;stroke-dasharray:5,5;" x1="74" x2="74" y1="120.8906" y2="609.8203"/></g><g><title>UI</title><rect fill="#000000" fill-opacity="0.00000" height="488.9297" width="8" x="317.4351" y="120.8906"/><line style="stroke:#181818;stroke-width:0.5;stroke-dasharray:5,5;" x1="320.7681" x2="320.7681" y1="120.8906" y2="609.8203"/></g><g><title>ReminderController</title><rect fill="#000000" fill-opacity="0.00000" height="488.9297" width="8" x="578.5962" y="120.8906"/><line style="stroke:#181818;stroke-width:0.5;stroke-dasharray:5,5;" x1="582.0112" x2="582.0112" y1="120.8906" y2="609.8203"/></g><g><title>HabitRepository</title><rect fill="#000000" fill-opacity="0.00000" height="488.9297" width="8" x="850.3198" y="120.8906"/><line style="stroke:#181818;stroke-width:0.5;stroke-dasharray:5,5;" x1="854.3037" x2="854.3037" y1="120.8906" y2="609.8203"/></g><g><title>NotificationService</title><rect fill="#000000" fill-opacity="0.00000" height="488.9297" width="8" x="992.3711" y="120.8906"/><line style="stroke:#181818;stroke-width:0.5;stroke-dasharray:5,5;" x1="996.3359" x2="996.3359" y1="120.8906" y2="609.8203"/></g><g><title>...... ...........</title><rect fill="#000000" fill-opacity="0.00000" height="488.9297" width="8" x="1253.2466" y="120.8906"/><line style="stroke:#181818;stroke-width:0.5;stroke-dasharray:5,5;" x1="1256.4263" x2="1256.4263" y1="120.8906" y2="609.8203"/></g><g class="participant participant-head" data-participant="User"><text fill="#000000" font-family="sans-serif" font-size="14" lengthAdjust="spacing" textLength="103.0996" x="20" y="117.5889">&#1055;&#1086;&#1083;&#1100;&#1079;&#1086;&#1074;&#1072;&#1090;&#1077;&#1083;&#1100;</text><ellipse cx="74.5498" cy="53.0938" fill="#E2E2F0" rx="8" ry="8" style="stroke:#181818;stroke-width:0.5;"/><path d="M74.5498,61.0938 L74.5498,88.0938 M61.5498,69.0938 L87.5498,69.0938 M74.5498,88.0938 L61.5498,103.0938 M74.5498,88.0938 L87.5498,103.0938" fill="none" style="stroke:#181818;stroke-width:0.5;"/></g><g class="participant participant-tail" data-participant="User"><text fill="#000000" font-family="sans-serif" font-size="14" lengthAdjust="spacing" textLength="103.0996" x="20" y="621.8154">&#1055;&#1086;&#1083;&#1100;&#1079;&#1086;&#1074;&#1072;&#1090;&#1077;&#1083;&#1100;</text><ellipse cx="74.5498" cy="633.6172" fill="#E2E2F0" rx="8" ry="8" style="stroke:#181818;stroke-width:0.5;"/><path d="M74.5498,641.6172 L74.5498,668.6172 M61.5498,649.6172 L87.5498,649.6172 M74.5498,668.6172 L61.5498,683.6172 M74.5498,668.6172 L87.5498,683.6172" fill="none" style="stroke:#181818;stroke-width:0.5;"/></g><g class="participant participant-head" data-participant="UI"><text fill="#000000" font-family="sans-serif" font-size="14" lengthAdjust="spacing" textLength="14.376" x="311.2471" y="101.292">UI</text><text fill="#000000" font-family="sans-serif" font-size="14" lengthAdjust="spacing" textLength="165.334" x="235.7681" y="117.5889">(&#1085;&#1072;&#1089;&#1090;&#1088;&#1086;&#1081;&#1082;&#1080; &#1087;&#1088;&#1080;&#1074;&#1099;&#1095;&#1082;&#1080;)</text><path d="M300.9351,60.2969 L300.9351,84.2969 M300.9351,72.2969 L317.9351,72.2969" fill="none" style="stroke:#181818;stroke-width:0.5;"/><ellipse cx="329.9351" cy="72.2969" fill="#E2E2F0" rx="12" ry="12" style="stroke:#181818;stroke-width:0.5;"/></g><g class="participant participant-tail" data-participant="UI"><text fill="#000000" font-family="sans-serif" font-size="14" lengthAdjust="spacing" textLength="14.376" x="311.2471" y="621.8154">UI</text><text fill="#000000" font-family="sans-serif" font-size="14" lengthAdjust="spacing" textLength="165.334" x="235.7681" y="638.1123">(&#1085;&#1072;&#1089;&#1090;&#1088;&#1086;&#1081;&#1082;&#1080; &#1087;&#1088;&#1080;&#1074;&#1099;&#1095;&#1082;&#1080;)</text><path d="M300.9351,645.4141 L300.9351,669.4141 M300.9351,657.4141 L317.9351,657.4141" fill="none" style="stroke:#181818;stroke-width:0.5;"/><ellipse cx="329.9351" cy="657.4141" fill="#E2E2F0" rx="12" ry="12" style="stroke:#181818;stroke-width:0.5;"/></g><g class="participant participant-head" data-participant="RC"><text fill="#000000" font-family="sans-serif" font-size="14" lengthAdjust="spacing" textLength="137.1699" x="511.0112" y="117.5889">ReminderController</text><ellipse cx="582.5962" cy="88.5938" fill="#E2E2F0" rx="12" ry="12" style="stroke:#181818;stroke-width:0.5;"/><polygon fill="#181818" points="578.5962,76.5938,584.5962,71.5938,582.5962,76.5938,584.5962,81.5938,578.5962,76.5938" style="stroke:#181818;stroke-width:1;"/></g><g class="participant participant-tail" data-participant="RC"><text fill="#000000" font-family="sans-serif" font-size="14" lengthAdjust="spacing" textLength="137.1699" x="511.0112" y="621.8154">ReminderController</text><ellipse cx="582.5962" cy="641.1172" fill="#E2E2F0" rx="12" ry="12" style="stroke:#181818;stroke-width:0.5;"/><polygon fill="#181818" points="578.5962,629.1172,584.5962,624.1172,582.5962,629.1172,584.5962,634.1172,578.5962,629.1172" style="stroke:#181818;stroke-width:1;"/></g><g class="participant participant-head" data-participant="HR"><text fill="#000000" font-family="sans-serif" font-size="14" lengthAdjust="spacing" textLength="112.4443" x="795.0977" y="101.292">HabitRepository</text><text fill="#000000" font-family="sans-serif" font-size="14" lengthAdjust="spacing" textLength="120.0322" x="791.3037" y="117.5889">(&#1041;&#1044;/&#1093;&#1088;&#1072;&#1085;&#1080;&#1083;&#1080;&#1097;&#1077;)</text><path d="M836.3198,52.2969 C836.3198,42.2969 854.3198,42.2969 854.3198,42.2969 C854.3198,42.2969 872.3198,42.2969 872.3198,52.2969 L872.3198,78.2969 C872.3198,88.2969 854.3198,88.2969 854.3198,88.2969 C854.3198,88.2969 836.3198,88.2969 836.3198,78.2969 L836.3198,52.2969" fill="#E2E2F0" style="stroke:#181818;stroke-width:0.5;"/><path d="M836.3198,52.2969 C836.3198,62.2969 854.3198,62.2969 854.3198,62.2969 C854.3198,62.2969 872.3198,62.2969 872.3198,52.2969" fill="none" style="stroke:#181818;stroke-width:0.5;"/></g><g class="participant participant-tail" data-participant="HR"><text fill="#000000" font-family="sans-serif" font-size="14" lengthAdjust="spacing" textLength="112.4443" x="795.0977" y="621.8154">HabitRepository</text><text fill="#000000" font-family="sans-serif" font-size="14" lengthAdjust="spacing" textLength="120.0322" x="791.3037" y="638.1123">(&#1041;&#1044;/&#1093;&#1088;&#1072;&#1085;&#1080;&#1083;&#1080;&#1097;&#1077;)</text><path d="M836.3198,651.4141 C836.3198,641.4141 854.3198,641.4141 854.3198,641.4141 C854.3198,641.4141 872.3198,641.4141 872.3198,651.4141 L872.3198,677.4141 C872.3198,687.4141 854.3198,687.4141 854.3198,687.4141 C854.3198,687.4141 836.3198,687.4141 836.3198,677.4141 L836.3198,651.4141" fill="#E2E2F0" style="stroke:#181818;stroke-width:0.5;"/><path d="M836.3198,651.4141 C836.3198,661.4141 854.3198,661.4141 854.3198,661.4141 C854.3198,661.4141 872.3198,661.4141 872.3198,651.4141" fill="none" style="stroke:#181818;stroke-width:0.5;"/></g><g class="participant participant-head" data-participant="NS"><text fill="#000000" font-family="sans-serif" font-size="14" lengthAdjust="spacing" textLength="132.0703" x="927.3359" y="101.292">NotificationService</text><text fill="#000000" font-family="sans-serif" font-size="14" lengthAdjust="spacing" textLength="97.8154" x="944.4634" y="117.5889">(&#1080;&#1085;&#1090;&#1077;&#1075;&#1088;&#1072;&#1094;&#1080;&#1103;)</text><ellipse cx="996.3711" cy="72.2969" fill="#E2E2F0" rx="12" ry="12" style="stroke:#181818;stroke-width:0.5;"/><polygon fill="#181818" points="992.3711,60.2969,998.3711,55.2969,996.3711,60.2969,998.3711,65.2969,992.3711,60.2969" style="stroke:#181818;stroke-width:1;"/></g><g class="participant participant-tail" data-participant="NS"><text fill="#000000" font-family="sans-serif" font-size="14" lengthAdjust="spacing" textLength="132.0703" x="927.3359" y="621.8154">NotificationService</text><text fill="#000000" font-family="sans-serif" font-size="14" lengthAdjust="spacing" textLength="97.8154" x="944.4634" y="638.1123">(&#1080;&#1085;&#1090;&#1077;&#1075;&#1088;&#1072;&#1094;&#1080;&#1103;)</text><ellipse cx="996.3711" cy="657.4141" fill="#E2E2F0" rx="12" ry="12" style="stroke:#181818;stroke-width:0.5;"/><polygon fill="#181818" points="992.3711,645.4141,998.3711,640.4141,996.3711,645.4141,998.3711,650.4141,992.3711,645.4141" style="stroke:#181818;stroke-width:1;"/></g><g class="participant participant-head" data-participant="Notify"><text fill="#000000" font-family="sans-serif" font-size="14" lengthAdjust="spacing" textLength="155.6406" x="1176.4263" y="117.5889">&#1057;&#1077;&#1088;&#1074;&#1080;&#1089; &#1091;&#1074;&#1077;&#1076;&#1086;&#1084;&#1083;&#1077;&#1085;&#1080;&#1081;</text><ellipse cx="1257.2466" cy="53.0938" fill="#E2E2F0" rx="8" ry="8" style="stroke:#181818;stroke-width:0.5;"/><path d="M1257.2466,61.0938 L1257.2466,88.0938 M1244.2466,69.0938 L1270.2466,69.0938 M1257.2466,88.0938 L1244.2466,103.0938 M1257.2466,88.0938 L1270.2466,103.0938" fill="none" style="stroke:#181818;stroke-width:0.5;"/></g><g class="participant participant-tail" data-participant="Notify"><text fill="#000000" font-family="sans-serif" font-size="14" lengthAdjust="spacing" textLength="155.6406" x="1176.4263" y="621.8154">&#1057;&#1077;&#1088;&#1074;&#1080;&#1089; &#1091;&#1074;&#1077;&#1076;&#1086;&#1084;&#1083;&#1077;&#1085;&#1080;&#1081;</text><ellipse cx="1257.2466" cy="633.6172" fill="#E2E2F0" rx="8" ry="8" style="stroke:#181818;stroke-width:0.5;"/><path d="M1257.2466,641.6172 L1257.2466,668.6172 M1244.2466,649.6172 L1270.2466,649.6172 M1257.2466,668.6172 L1244.2466,683.6172 M1257.2466,668.6172 L1270.2466,683.6172" fill="none" style="stroke:#181818;stroke-width:0.5;"/></g><g class="message" data-participant-1="User" data-participant-2="UI"><polygon fill="#181818" points="309.4351,148.0234,319.4351,152.0234,309.4351,156.0234,313.4351,152.0234" style="stroke:#181818;stroke-width:1;"/><line style="stroke:#181818;stroke-width:1;" x1="74.5498" x2="315.4351" y1="152.0234" y2="152.0234"/><text fill="#000000" font-family="sans-serif" font-size="13" lengthAdjust="spacing" textLength="222.8853" x="81.5498" y="146.9575">&#1054;&#1090;&#1082;&#1088;&#1099;&#1074;&#1072;&#1077;&#1090; &#1085;&#1072;&#1089;&#1090;&#1088;&#1086;&#1081;&#1082;&#1080; &#1087;&#1088;&#1080;&#1074;&#1099;&#1095;&#1082;&#1080;</text></g><g class="message" data-participant-1="User" data-participant-2="UI"><polygon fill="#181818" points="309.4351,192.2891,319.4351,196.2891,309.4351,200.2891,313.4351,196.2891" style="stroke:#181818;stroke-width:1;"/><line style="stroke:#181818;stroke-width:1;" x1="74.5498" x2="315.4351" y1="196.2891" y2="196.2891"/><text fill="#000000" font-family="sans-serif" font-size="13" lengthAdjust="spacing" textLength="163.7822" x="81.5498" y="176.0903">&#1042;&#1082;&#1083;&#1102;&#1095;&#1072;&#1077;&#1090; &#1085;&#1072;&#1087;&#1086;&#1084;&#1080;&#1085;&#1072;&#1085;&#1080;&#1103;</text><text fill="#000000" font-family="sans-serif" font-size="13" lengthAdjust="spacing" textLength="140.2578" x="81.5498" y="191.2231">(&#1074;&#1088;&#1077;&#1084;&#1103;, &#1076;&#1085;&#1080; &#1085;&#1077;&#1076;&#1077;&#1083;&#1080;)</text></g><g class="message" data-participant-1="UI" data-participant-2="RC"><polygon fill="#181818" points="570.5962,221.4219,580.5962,225.4219,570.5962,229.4219,574.5962,225.4219" style="stroke:#181818;stroke-width:1;"/><line style="stroke:#181818;stroke-width:1;" x1="321.4351" x2="576.5962" y1="225.4219" y2="225.4219"/><text fill="#000000" font-family="sans-serif" font-size="13" lengthAdjust="spacing" textLength="237.1611" x="328.4351" y="220.356">setReminder(habitId, reminderData)</text></g><g class="message" data-participant-1="RC" data-participant-2="HR"><polygon fill="#181818" points="842.3198,250.5547,852.3198,254.5547,842.3198,258.5547,846.3198,254.5547" style="stroke:#181818;stroke-width:1;"/><line style="stroke:#181818;stroke-width:1;" x1="582.5962" x2="848.3198" y1="254.5547" y2="254.5547"/><text fill="#000000" font-family="sans-serif" font-size="13" lengthAdjust="spacing" textLength="111.4458" x="589.5962" y="249.4888">getHabit(habitId)</text></g><g class="message" data-participant-1="HR" data-participant-2="RC"><polygon fill="#181818" points="593.5962,279.6875,583.5962,283.6875,593.5962,287.6875,589.5962,283.6875" style="stroke:#181818;stroke-width:1;"/><line style="stroke:#181818;stroke-width:1;stroke-dasharray:2,2;" x1="587.5962" x2="853.3198" y1="283.6875" y2="283.6875"/><text fill="#000000" font-family="sans-serif" font-size="13" lengthAdjust="spacing" textLength="34.7026" x="599.5962" y="278.6216">Habit</text></g><path d="M10,298.6875 L74.4429,298.6875 L74.4429,305.8203 L64.4429,315.8203 L10,315.8203 L10,298.6875" fill="#EEEEEE" style="stroke:#000000;stroke-width:1.5;"/><rect fill="none" height="294.1328" style="stroke:#000000;stroke-width:1.5;" width="1338.0669" x="10" y="298.6875"/><text fill="#000000" font-family="sans-serif" font-size="13" font-weight="bold" lengthAdjust="spacing" textLength="19.4429" x="25" y="311.7544">alt</text><text fill="#000000" font-family="sans-serif" font-size="11" font-weight="bold" lengthAdjust="spacing" textLength="132.1182" x="89.4429" y="310.8979">[&#1055;&#1088;&#1080;&#1074;&#1099;&#1095;&#1082;&#1072; &#1085;&#1072;&#1081;&#1076;&#1077;&#1085;&#1072;]</text><g class="message" data-participant-1="RC" data-participant-2="HR"><polygon fill="#181818" points="842.3198,332.9531,852.3198,336.9531,842.3198,340.9531,846.3198,336.9531" style="stroke:#181818;stroke-width:1;"/><line style="stroke:#181818;stroke-width:1;" x1="582.5962" x2="848.3198" y1="336.9531" y2="336.9531"/><text fill="#000000" font-family="sans-serif" font-size="13" lengthAdjust="spacing" textLength="247.7236" x="589.5962" y="331.8872">saveReminder(habitId, reminderData)</text></g><g class="message" data-participant-1="HR" data-participant-2="RC"><polygon fill="#181818" points="593.5962,362.0859,583.5962,366.0859,593.5962,370.0859,589.5962,366.0859" style="stroke:#181818;stroke-width:1;"/><line style="stroke:#181818;stroke-width:1;stroke-dasharray:2,2;" x1="587.5962" x2="853.3198" y1="366.0859" y2="366.0859"/><text fill="#000000" font-family="sans-serif" font-size="13" lengthAdjust="spacing" textLength="18.7573" x="599.5962" y="361.02">OK</text></g><g class="message" data-participant-1="RC" data-participant-2="NS"><polygon fill="#181818" points="984.3711,391.2188,994.3711,395.2188,984.3711,399.2188,988.3711,395.2188" style="stroke:#181818;stroke-width:1;"/><line style="stroke:#181818;stroke-width:1;" x1="582.5962" x2="990.3711" y1="395.2188" y2="395.2188"/><text fill="#000000" font-family="sans-serif" font-size="13" lengthAdjust="spacing" textLength="212.4116" x="589.5962" y="390.1528">schedule(habitId, reminderData)</text></g><g class="message" data-participant-1="NS" data-participant-2="Notify"><polygon fill="#181818" points="1245.2466,420.3516,1255.2466,424.3516,1245.2466,428.3516,1249.2466,424.3516" style="stroke:#181818;stroke-width:1;"/><line style="stroke:#181818;stroke-width:1;" x1="996.3711" x2="1251.2466" y1="424.3516" y2="424.3516"/><text fill="#000000" font-family="sans-serif" font-size="13" lengthAdjust="spacing" textLength="236.8755" x="1003.3711" y="419.2856">createNotification(trigger, message)</text></g><g class="message" data-participant-1="Notify" data-participant-2="NS"><polygon fill="#181818" points="1007.3711,449.4844,997.3711,453.4844,1007.3711,457.4844,1003.3711,453.4844" style="stroke:#181818;stroke-width:1;"/><line style="stroke:#181818;stroke-width:1;stroke-dasharray:2,2;" x1="1001.3711" x2="1256.2466" y1="453.4844" y2="453.4844"/><text fill="#000000" font-family="sans-serif" font-size="13" lengthAdjust="spacing" textLength="118.2251" x="1013.3711" y="448.4185">OK (notificationId)</text></g><g class="message" data-participant-1="RC" data-participant-2="UI"><polygon fill="#181818" points="332.4351,478.6172,322.4351,482.6172,332.4351,486.6172,328.4351,482.6172" style="stroke:#181818;stroke-width:1;"/><line style="stroke:#181818;stroke-width:1;stroke-dasharray:2,2;" x1="326.4351" x2="581.5962" y1="482.6172" y2="482.6172"/><text fill="#000000" font-family="sans-serif" font-size="13" lengthAdjust="spacing" textLength="39.2603" x="338.4351" y="477.5513">&#1059;&#1089;&#1087;&#1077;&#1093;</text></g><g class="message" data-participant-1="UI" data-participant-2="User"><polygon fill="#181818" points="85.5498,507.75,75.5498,511.75,85.5498,515.75,81.5498,511.75" style="stroke:#181818;stroke-width:1;"/><line style="stroke:#181818;stroke-width:1;stroke-dasharray:2,2;" x1="79.5498" x2="320.4351" y1="511.75" y2="511.75"/><text fill="#000000" font-family="sans-serif" font-size="13" lengthAdjust="spacing" textLength="169.9585" x="91.5498" y="506.6841">&#1053;&#1072;&#1087;&#1086;&#1084;&#1080;&#1085;&#1072;&#1085;&#1080;&#1077; &#1089;&#1086;&#1093;&#1088;&#1072;&#1085;&#1077;&#1085;&#1086;</text></g><line style="stroke:#000000;stroke-width:1;stroke-dasharray:2,2;" x1="10" x2="1348.0669" y1="520.75" y2="520.75"/><text fill="#000000" font-family="sans-serif" font-size="11" font-weight="bold" lengthAdjust="spacing" textLength="151.0083" x="15" y="530.9604">[&#1055;&#1088;&#1080;&#1074;&#1099;&#1095;&#1082;&#1072; &#1085;&#1077; &#1085;&#1072;&#1081;&#1076;&#1077;&#1085;&#1072;]</text><g class="message" data-participant-1="RC" data-participant-2="UI"><polygon fill="#181818" points="332.4351,551.6875,322.4351,555.6875,332.4351,559.6875,328.4351,555.6875" style="stroke:#181818;stroke-width:1;"/><line style="stroke:#181818;stroke-width:1;stroke-dasharray:2,2;" x1="326.4351" x2="581.5962" y1="555.6875" y2="555.6875"/><text fill="#000000" font-family="sans-serif" font-size="13" lengthAdjust="spacing" textLength="147.6719" x="338.4351" y="550.6216">&#1054;&#1096;&#1080;&#1073;&#1082;&#1072; (&#1085;&#1077; &#1085;&#1072;&#1081;&#1076;&#1077;&#1085;&#1086;)</text></g><g class="message" data-participant-1="UI" data-participant-2="User"><polygon fill="#181818" points="85.5498,580.8203,75.5498,584.8203,85.5498,588.8203,81.5498,584.8203" style="stroke:#181818;stroke-width:1;"/><line style="stroke:#181818;stroke-width:1;stroke-dasharray:2,2;" x1="79.5498" x2="320.4351" y1="584.8203" y2="584.8203"/><text fill="#000000" font-family="sans-serif" font-size="13" lengthAdjust="spacing" textLength="154.5908" x="91.5498" y="579.7544">&#1057;&#1086;&#1086;&#1073;&#1097;&#1077;&#1085;&#1080;&#1077; &#1086;&#1073; &#1086;&#1096;&#1080;&#1073;&#1082;&#1077;</text></g><!--SRC=[ZLDDQzj04BtlhnXyai2cnq8FlRW7cu03ChxrifQsZa2HoceJy2rsIJz8Q6ZfjGsXVy1nAsh7iVCNPlzHPrQsuiOfxKNQtNdpvisRNHERH46l-VGPu5USs94TsnDSuOp-vu1BdE0TRMznvjPB2bm88KEJQQZX9OKMzXn_qNzAsMCiU5y3cKClLrhqiwCqade8jLxxPUenHrLYZZSu0xoZpGodzio-umE_J6wBC4kDpXAe1UemJYEbc-L1ehI314qHIIFxCbTGQyb-R0BrEijZKZRaKf_monDxIkHEDIv8-GSiIlfMS4_VoKpyAWwbYREqg_Hn72fEftvTEp-OmRxblilSJhTg_meBYaufDWBxXXO5_dHcBMZ5HUTb1bSO2i6EGECvDGVazZUYlx4dzeoT8w8n_8Sx3pW-qzd2VgJOFSFklBYTAV4KU6ilwa0QbqozT78BTiONn4UiGPDOSsKsbdi7x6ixgeDUdxmWotqX24ZmLa3mWJBE_GtM5tJSs92v45sOn01U_j7Bf5GxTnfe9G2sM7DvhFwb0c2xqlwUg2WwNQO83rHqbAY_fnECmMuyb11g9OtQlW-UqV5We7GT3bMUou5oMIM-iQcplmTUkfN45goLL8FwRaSqbyAUKe2jvW1Fidnr3qU61H1-LTrUzcSbL48t_J4JYyUTtBffxodbsi6zNVpAtnLrHO9MUCqlPYs8j_Ifg0gXqkWt]--></g></svg>