<svg xmlns="http://www.w3.org/2000/svg" xmlns:xlink="http://www.w3.org/1999/xlink" contentStyleType="text/css" data-diagram-type="SEQUENCE" height="557px" preserveAspectRatio="none" style="width:1015px;height:557px;background:#FFFFFF;" version="1.1" viewBox="0 0 1015 557" width="1015px" zoomAndPan="magnify"><title>UC5: &#1055;&#1088;&#1086;&#1089;&#1084;&#1086;&#1090;&#1088;&#1077;&#1090;&#1100; &#1087;&#1088;&#1086;&#1075;&#1088;&#1077;&#1089;&#1089; (&#1075;&#1088;&#1072;&#1092;&#1080;&#1082;/&#1089;&#1090;&#1088;&#1080;&#1082;/&#1089;&#1090;&#1072;&#1090;&#1080;&#1089;&#1090;&#1080;&#1082;&#1072;)</title><defs/><g><text fill="#000000" font-family="sans-serif" font-size="14" font-weight="bold" lengthAdjust="spacing" textLength="447.3711" x="285.6887" y="27.9951">UC5: &#1055;&#1088;&#1086;&#1089;&#1084;&#1086;&#1090;&#1088;&#1077;&#1090;&#1100; &#1087;&#1088;&#1086;&#1075;&#1088;&#1077;&#1089;&#1089; (&#1075;&#1088;&#1072;&#1092;&#1080;&#1082;/&#1089;&#1090;&#1088;&#1080;&#1082;/&#1089;&#1090;&#1072;&#1090;&#1080;&#1089;&#1090;&#1080;&#1082;&#1072;)</text><g><title>............</title><rect fill="#000000" fill-opacity="0.00000" height="341.5938" width="8" x="55.5498" y="120.8906"/><line style="stroke:#181818;stroke-width:0.5;stroke-dasharray:5,5;" x1="59" x2="59" y1="120.8906" y2="462.4844"/></g><g><title>UI</title><rect fill="#000000" fill-opacity="0.00000" height="341.5938" width="8" x="313.5244" y="120.8906"/><line style="stroke:#181818;stroke-width:0.5;stroke-dasharray:5,5;" x1="316.7407" x2="316.7407" y1="120.8906" y2="462.4844"/></g><g><title>ProgressController</title><rect fill="#000000" fill-opacity="0.00000" height="341.5938" width="8" x="461.1982" y="120.8906"/><line style="stroke:#181818;stroke-width:0.5;stroke-dasharray:5,5;" x1="464.3081" x2="464.3081" y1="120.8906" y2="462.4844"/></g><g><title>HabitRepository</title><rect fill="#000000" fill-opacity="0.00000" height="341.5938" width="8" x="603.0361" y="120.8906"/><line style="stroke:#181818;stroke-width:0.5;stroke-dasharray:5,5;" x1="607.02" x2="607.02" y1="120.8906" y2="462.4844"/></g><g><title>LogRepository</title><rect fill="#000000" fill-opacity="0.00000" height="341.5938" width="8" x="760.5161" y="120.8906"/><line style="stroke:#181818;stroke-width:0.5;stroke-dasharray:5,5;" x1="764.0522" x2="764.0522" y1="120.8906" y2="462.4844"/></g><g><title>ProgressService</title><rect fill="#000000" fill-opacity="0.00000" height="341.5938" width="8" x="932.8643" y="120.8906"/><line style="stroke:#181818;stroke-width:0.5;stroke-dasharray:5,5;" x1="935.98" x2="935.98" y1="120.8906" y2="462.4844"/></g><g class="participant participant-head" data-participant="User"><text fill="#000000" font-family="sans-serif" font-size="14" lengthAdjust="spacing" textLength="103.0996" x="5" y="117.5889">&#1055;&#1086;&#1083;&#1100;&#1079;&#1086;&#1074;&#1072;&#1090;&#1077;&#1083;&#1100;</text><ellipse cx="59.5498" cy="53.0938" fill="#E2E2F0" rx="8" ry="8" style="stroke:#181818;stroke-width:0.5;"/><path d="M59.5498,61.0938 L59.5498,88.0938 M46.5498,69.0938 L72.5498,69.0938 M59.5498,88.0938 L46.5498,103.0938 M59.5498,88.0938 L72.5498,103.0938" fill="none" style="stroke:#181818;stroke-width:0.5;"/></g><g class="participant participant-tail" data-participant="User"><text fill="#000000" font-family="sans-serif" font-size="14" lengthAdjust="spacing" textLength="103.0996" x="5" y="474.4795">&#1055;&#1086;&#1083;&#1100;&#1079;&#1086;&#1074;&#1072;&#1090;&#1077;&#1083;&#1100;</text><ellipse cx="59.5498" cy="486.2813" fill="#E2E2F0" rx="8" ry="8" style="stroke:#181818;stroke-width:0.5;"/><path d="M59.5498,494.2813 L59.5498,521.2813 M46.5498,502.2813 L72.5498,502.2813 M59.5498,521.2813 L46.5498,536.2813 M59.5498,521.2813 L72.5498,536.2813" fill="none" style="stroke:#181818;stroke-width:0.5;"/></g><g class="participant participant-head" data-participant="UI"><text fill="#000000" font-family="sans-serif" font-size="14" lengthAdjust="spacing" textLength="14.376" x="307.3364" y="101.292">UI</text><text fill="#000000" font-family="sans-serif" font-size="14" lengthAdjust="spacing" textLength="133.5674" x="247.7407" y="117.5889">(&#1101;&#1082;&#1088;&#1072;&#1085; &#1087;&#1088;&#1086;&#1075;&#1088;&#1077;&#1089;&#1089;&#1072;)</text><path d="M297.0244,60.2969 L297.0244,84.2969 M297.0244,72.2969 L314.0244,72.2969" fill="none" style="stroke:#181818;stroke-width:0.5;"/><ellipse cx="326.0244" cy="72.2969" fill="#E2E2F0" rx="12" ry="12" style="stroke:#181818;stroke-width:0.5;"/></g><g class="participant participant-tail" data-participant="UI"><text fill="#000000" font-family="sans-serif" font-size="14" lengthAdjust="spacing" textLength="14.376" x="307.3364" y="474.4795">UI</text><text fill="#000000" font-family="sans-serif" font-size="14" lengthAdjust="spacing" textLength="133.5674" x="247.7407" y="490.7764">(&#1101;&#1082;&#1088;&#1072;&#1085; &#1087;&#1088;&#1086;&#1075;&#1088;&#1077;&#1089;&#1089;&#1072;)</text><path d="M297.0244,498.0781 L297.0244,522.0781 M297.0244,510.0781 L314.0244,510.0781" fill="none" style="stroke:#181818;stroke-width:0.5;"/><ellipse cx="326.0244" cy="510.0781" fill="#E2E2F0" rx="12" ry="12" style="stroke:#181818;stroke-width:0.5;"/></g><g class="participant participant-head" data-participant="PC"><text fill="#000000" font-family="sans-serif" font-size="14" lengthAdjust="spacing" textLength="129.7803" x="397.3081" y="117.5889">ProgressController</text><ellipse cx="465.1982" cy="88.5938" fill="#E2E2F0" rx="12" ry="12" style="stroke:#181818;stroke-width:0.5;"/><polygon fill="#181818" points="461.1982,76.5938,467.1982,71.5938,465.1982,76.5938,467.1982,81.5938,461.1982,76.5938" style="stroke:#181818;stroke-width:1;"/></g><g class="participant participant-tail" data-participant="PC"><text fill="#000000" font-family="sans-serif" font-size="14" lengthAdjust="spacing" textLength="129.7803" x="397.3081" y="474.4795">ProgressController</text><ellipse cx="465.1982" cy="493.7813" fill="#E2E2F0" rx="12" ry="12" style="stroke:#181818;stroke-width:0.5;"/><polygon fill="#181818" points="461.1982,481.7813,467.1982,476.7813,465.1982,481.7813,467.1982,486.7813,461.1982,481.7813" style="stroke:#181818;stroke-width:1;"/></g><g class="participant participant-head" data-participant="HR"><text fill="#000000" font-family="sans-serif" font-size="14" lengthAdjust="spacing" textLength="112.4443" x="547.814" y="101.292">HabitRepository</text><text fill="#000000" font-family="sans-serif" font-size="14" lengthAdjust="spacing" textLength="120.0322" x="544.02" y="117.5889">(&#1041;&#1044;/&#1093;&#1088;&#1072;&#1085;&#1080;&#1083;&#1080;&#1097;&#1077;)</text><path d="M589.0361,52.2969 C589.0361,42.2969 607.0361,42.2969 607.0361,42.2969 C607.0361,42.2969 625.0361,42.2969 625.0361,52.2969 L625.0361,78.2969 C625.0361,88.2969 607.0361,88.2969 607.0361,88.2969 C607.0361,88.2969 589.0361,88.2969 589.0361,78.2969 L589.0361,52.2969" fill="#E2E2F0" style="stroke:#181818;stroke-width:0.5;"/><path d="M589.0361,52.2969 C589.0361,62.2969 607.0361,62.2969 607.0361,62.2969 C607.0361,62.2969 625.0361,62.2969 625.0361,52.2969" fill="none" style="stroke:#181818;stroke-width:0.5;"/></g><g class="participant participant-tail" data-participant="HR"><text fill="#000000" font-family="sans-serif" font-size="14" lengthAdjust="spacing" textLength="112.4443" x="547.814" y="474.4795">HabitRepository</text><text fill="#000000" font-family="sans-serif" font-size="14" lengthAdjust="spacing" textLength="120.0322" x="544.02" y="490.7764">(&#1041;&#1044;/&#1093;&#1088;&#1072;&#1085;&#1080;&#1083;&#1080;&#1097;&#1077;)</text><path d="M589.0361,504.0781 C589.0361,494.0781 607.0361,494.0781 607.0361,494.0781 C607.0361,494.0781 625.0361,494.0781 625.0361,504.0781 L625.0361,530.0781 C625.0361,540.0781 607.0361,540.0781 607.0361,540.0781 C607.0361,540.0781 589.0361,540.0781 589.0361,530.0781 L589.0361,504.0781" fill="#E2E2F0" style="stroke:#181818;stroke-width:0.5;"/><path d="M589.0361,504.0781 C589.0361,514.0781 607.0361,514.0781 607.0361,514.0781 C607.0361,514.0781 625.0361,514.0781 625.0361,504.0781" fill="none" style="stroke:#181818;stroke-width:0.5;"/></g><g class="participant participant-head" data-participant="LR"><text fill="#000000" font-family="sans-serif" font-size="14" lengthAdjust="spacing" textLength="100.3242" x="711.354" y="101.292">LogRepository</text><text fill="#000000" font-family="sans-serif" font-size="14" lengthAdjust="spacing" textLength="162.9277" x="680.0522" y="117.5889">(&#1078;&#1091;&#1088;&#1085;&#1072;&#1083; &#1074;&#1099;&#1087;&#1086;&#1083;&#1085;&#1077;&#1085;&#1080;&#1081;)</text><path d="M746.5161,52.2969 C746.5161,42.2969 764.5161,42.2969 764.5161,42.2969 C764.5161,42.2969 782.5161,42.2969 782.5161,52.2969 L782.5161,78.2969 C782.5161,88.2969 764.5161,88.2969 764.5161,88.2969 C764.5161,88.2969 746.5161,88.2969 746.5161,78.2969 L746.5161,52.2969" fill="#E2E2F0" style="stroke:#181818;stroke-width:0.5;"/><path d="M746.5161,52.2969 C746.5161,62.2969 764.5161,62.2969 764.5161,62.2969 C764.5161,62.2969 782.5161,62.2969 782.5161,52.2969" fill="none" style="stroke:#181818;stroke-width:0.5;"/></g><g class="participant participant-tail" data-participant="LR"><text fill="#000000" font-family="sans-serif" font-size="14" lengthAdjust="spacing" textLength="100.3242" x="711.354" y="474.4795">LogRepository</text><text fill="#000000" font-family="sans-serif" font-size="14" lengthAdjust="spacing" textLength="162.9277" x="680.0522" y="490.7764">(&#1078;&#1091;&#1088;&#1085;&#1072;&#1083; &#1074;&#1099;&#1087;&#1086;&#1083;&#1085;&#1077;&#1085;&#1080;&#1081;)</text><path d="M746.5161,504.0781 C746.5161,494.0781 764.5161,494.0781 764.5161,494.0781 C764.5161,494.0781 782.5161,494.0781 782.5161,504.0781 L782.5161,530.0781 C782.5161,540.0781 764.5161,540.0781 764.5161,540.0781 C764.5161,540.0781 746.5161,540.0781 746.5161,530.0781 L746.5161,504.0781" fill="#E2E2F0" style="stroke:#181818;stroke-width:0.5;"/><path d="M746.5161,504.0781 C746.5161,514.0781 764.5161,514.0781 764.5161,514.0781 C764.5161,514.0781 782.5161,514.0781 782.5161,504.0781" fill="none" style="stroke:#181818;stroke-width:0.5;"/></g><g class="participant participant-head" data-participant="PS"><text fill="#000000" font-family="sans-serif" font-size="14" lengthAdjust="spacing" textLength="112.3486" x="877.6899" y="101.292">ProgressService</text><text fill="#000000" font-family="sans-serif" font-size="14" lengthAdjust="spacing" textLength="149.7686" x="858.98" y="117.5889">(&#1088;&#1072;&#1089;&#1095;&#1105;&#1090; &#1089;&#1090;&#1072;&#1090;&#1080;&#1089;&#1090;&#1080;&#1082;&#1080;)</text><ellipse cx="936.8643" cy="72.2969" fill="#E2E2F0" rx="12" ry="12" style="stroke:#181818;stroke-width:0.5;"/><polygon fill="#181818" points="932.8643,60.2969,938.8643,55.2969,936.8643,60.2969,938.8643,65.2969,932.8643,60.2969" style="stroke:#181818;stroke-width:1;"/></g><g class="participant participant-tail" data-participant="PS"><text fill="#000000" font-family="sans-serif" font-size="14" lengthAdjust="spacing" textLength="112.3486" x="877.6899" y="474.4795">ProgressService</text><text fill="#000000" font-family="sans-serif" font-size="14" lengthAdjust="spacing" textLength="149.7686" x="858.98" y="490.7764">(&#1088;&#1072;&#1089;&#1095;&#1105;&#1090; &#1089;&#1090;&#1072;&#1090;&#1080;&#1089;&#1090;&#1080;&#1082;&#1080;)</text><ellipse cx="936.8643" cy="510.0781" fill="#E2E2F0" rx="12" ry="12" style="stroke:#181818;stroke-width:0.5;"/><polygon fill="#181818" points="932.8643,498.0781,938.8643,493.0781,936.8643,498.0781,938.8643,503.0781,932.8643,498.0781" style="stroke:#181818;stroke-width:1;"/></g><g class="message" data-participant-1="User" data-participant-2="UI"><polygon fill="#181818" points="305.5244,163.1563,315.5244,167.1563,305.5244,171.1563,309.5244,167.1563" style="stroke:#181818;stroke-width:1;"/><line style="stroke:#181818;stroke-width:1;" x1="59.5498" x2="311.5244" y1="167.1563" y2="167.1563"/><text fill="#000000" font-family="sans-serif" font-size="13" lengthAdjust="spacing" textLength="154.8193" x="66.5498" y="146.9575">&#1054;&#1090;&#1082;&#1088;&#1099;&#1074;&#1072;&#1077;&#1090; "&#1055;&#1088;&#1086;&#1075;&#1088;&#1077;&#1089;&#1089;"</text><text fill="#000000" font-family="sans-serif" font-size="13" lengthAdjust="spacing" textLength="232.4004" x="66.5498" y="162.0903">(&#1074;&#1099;&#1073;&#1080;&#1088;&#1072;&#1077;&#1090; &#1087;&#1077;&#1088;&#1080;&#1086;&#1076;, &#1087;&#1088;&#1080;&#1074;&#1099;&#1095;&#1082;&#1091;/&#1074;&#1089;&#1077;)</text></g><g class="message" data-participant-1="UI" data-participant-2="PC"><polygon fill="#181818" points="453.1982,192.2891,463.1982,196.2891,453.1982,200.2891,457.1982,196.2891" style="stroke:#181818;stroke-width:1;"/><line style="stroke:#181818;stroke-width:1;" x1="317.5244" x2="459.1982" y1="196.2891" y2="196.2891"/><text fill="#000000" font-family="sans-serif" font-size="13" lengthAdjust="spacing" textLength="118.0093" x="324.5244" y="191.2231">getProgress(filter)</text></g><g class="message" data-participant-1="PC" data-participant-2="HR"><polygon fill="#181818" points="595.0361,221.4219,605.0361,225.4219,595.0361,229.4219,599.0361,225.4219" style="stroke:#181818;stroke-width:1;"/><line style="stroke:#181818;stroke-width:1;" x1="465.1982" x2="601.0361" y1="225.4219" y2="225.4219"/><text fill="#000000" font-family="sans-serif" font-size="13" lengthAdjust="spacing" textLength="103.2065" x="472.1982" y="220.356">getHabits(filter)</text></g><g class="message" data-participant-1="HR" data-participant-2="PC"><polygon fill="#181818" points="476.1982,250.5547,466.1982,254.5547,476.1982,258.5547,472.1982,254.5547" style="stroke:#181818;stroke-width:1;"/><line style="stroke:#181818;stroke-width:1;stroke-dasharray:2,2;" x1="470.1982" x2="606.0361" y1="254.5547" y2="254.5547"/><text fill="#000000" font-family="sans-serif" font-size="13" lengthAdjust="spacing" textLength="117.8379" x="482.1982" y="249.4888">&#1089;&#1087;&#1080;&#1089;&#1086;&#1082; &#1087;&#1088;&#1080;&#1074;&#1099;&#1095;&#1077;&#1082;</text></g><g class="message" data-participant-1="PC" data-participant-2="LR"><polygon fill="#181818" points="752.5161,279.6875,762.5161,283.6875,752.5161,287.6875,756.5161,283.6875" style="stroke:#181818;stroke-width:1;"/><line style="stroke:#181818;stroke-width:1;" x1="465.1982" x2="758.5161" y1="283.6875" y2="283.6875"/><text fill="#000000" font-family="sans-serif" font-size="13" lengthAdjust="spacing" textLength="151.3281" x="472.1982" y="278.6216">getLogs(habits, period)</text></g><g class="message" data-participant-1="LR" data-participant-2="PC"><polygon fill="#181818" points="476.1982,308.8203,466.1982,312.8203,476.1982,316.8203,472.1982,312.8203" style="stroke:#181818;stroke-width:1;"/><line style="stroke:#181818;stroke-width:1;stroke-dasharray:2,2;" x1="470.1982" x2="763.5161" y1="312.8203" y2="312.8203"/><text fill="#000000" font-family="sans-serif" font-size="13" lengthAdjust="spacing" textLength="136.1382" x="482.1982" y="307.7544">&#1079;&#1072;&#1087;&#1080;&#1089;&#1080; &#1074;&#1099;&#1087;&#1086;&#1083;&#1085;&#1077;&#1085;&#1080;&#1081;</text></g><g class="message" data-participant-1="PC" data-participant-2="PS"><polygon fill="#181818" points="924.8643,337.9531,934.8643,341.9531,924.8643,345.9531,928.8643,341.9531" style="stroke:#181818;stroke-width:1;"/><line style="stroke:#181818;stroke-width:1;" x1="465.1982" x2="930.8643" y1="341.9531" y2="341.9531"/><text fill="#000000" font-family="sans-serif" font-size="13" lengthAdjust="spacing" textLength="193.4004" x="472.1982" y="336.8872">calculate(habits, logs, period)</text></g><g class="message" data-participant-1="PS" data-participant-2="PC"><polygon fill="#181818" points="476.1982,382.2188,466.1982,386.2188,476.1982,390.2188,472.1982,386.2188" style="stroke:#181818;stroke-width:1;"/><line style="stroke:#181818;stroke-width:1;stroke-dasharray:2,2;" x1="470.1982" x2="935.8643" y1="386.2188" y2="386.2188"/><text fill="#000000" font-family="sans-serif" font-size="13" lengthAdjust="spacing" textLength="150.9219" x="482.1982" y="366.02">&#1089;&#1090;&#1072;&#1090;&#1080;&#1089;&#1090;&#1080;&#1082;&#1072; (%, &#1089;&#1090;&#1088;&#1080;&#1082;,</text><text fill="#000000" font-family="sans-serif" font-size="13" lengthAdjust="spacing" textLength="115.3687" x="482.1982" y="381.1528">&#1075;&#1088;&#1072;&#1092;&#1080;&#1082; &#1087;&#1086; &#1076;&#1085;&#1103;&#1084;)</text></g><g class="message" data-participant-1="PC" data-participant-2="UI"><polygon fill="#181818" points="328.5244,411.3516,318.5244,415.3516,328.5244,419.3516,324.5244,415.3516" style="stroke:#181818;stroke-width:1;"/><line style="stroke:#181818;stroke-width:1;stroke-dasharray:2,2;" x1="322.5244" x2="464.1982" y1="415.3516" y2="415.3516"/><text fill="#000000" font-family="sans-serif" font-size="13" lengthAdjust="spacing" textLength="87.731" x="334.5244" y="410.2856">progressData</text></g><g class="message" data-participant-1="UI" data-participant-2="User"><polygon fill="#181818" points="70.5498,440.4844,60.5498,444.4844,70.5498,448.4844,66.5498,444.4844" style="stroke:#181818;stroke-width:1;"/><line style="stroke:#181818;stroke-width:1;stroke-dasharray:2,2;" x1="64.5498" x2="316.5244" y1="444.4844" y2="444.4844"/><text fill="#000000" font-family="sans-serif" font-size="13" lengthAdjust="spacing" textLength="233.9746" x="76.5498" y="439.4185">&#1054;&#1090;&#1086;&#1073;&#1088;&#1072;&#1078;&#1072;&#1077;&#1090; &#1075;&#1088;&#1072;&#1092;&#1080;&#1082; &#1080; &#1089;&#1090;&#1072;&#1090;&#1080;&#1089;&#1090;&#1080;&#1082;&#1091;</text></g><!--SRC=[RLBBRjf05DtFLumiHN8a8bRTTD4DNH29XGLYbyrWfjIIXT5u4Ycx65f5LLDLaRfkVe6aSU92W5-uyqSzCxOB23Pck8zppZttwaZ7alTRxzvpUZ0tj3OPlU4xnJl7zuxJneRfZmja9kE-Uy_D5ofeqKJ8rjPFnATKk1T2D3zbJ8GwKToZ1w0ipHszulV9rUNslyT5olkfL6oGN8w7Gbrphtz-CVRD3rfO8beTQ01ksNREmcIiLH9pBr39ICaqRPM1M2fN4hJOK6Wn4AdaNbiC8jsLaoIDeEaQ97HFlvhcQya3oKk8_qPv2T_kxlHsaj5-vukPeMs5nYMd9_ETDdP017A7zBV4w7GF9VQakef2QMUqHcRcrjoRAJ_YNr6213t6h4Nyx0DcvjZLRnJ07R32IhifQ_2-IPuLQNKz0l2cgeB8tArhJS-DqjV25fbRmCsQU6QOde44L44BL2EfQzt-foZMKc6do23VxfPvP-isY_1PtGsuZPq7V8jzkfmMDKwdme75gV_PWJNuHAee6PwopWuQRcTUuHL7FQyHWnwgGn67bx7GyZzc388jCefsT1xUBlTF6dnxtusByUxbMolNd9vfPNxIM-L9lPz9vTX7d8ypqoRi0glLhUdHhUIbNiiUS754Zfdz0m00]--></g></svg>