<svg xmlns="http://www.w3.org/2000/svg" xmlns:xlink="http://www.w3.org/1999/xlink" contentStyleType="text/css" data-diagram-type="SEQUENCE" height="601px" preserveAspectRatio="none" style="width:949px;height:601px;background:#FFFFFF;" version="1.1" viewBox="0 0 949 601" width="949px" zoomAndPan="magnify"><title>UC4: &#1054;&#1090;&#1084;&#1077;&#1090;&#1080;&#1090;&#1100; &#1074;&#1099;&#1087;&#1086;&#1083;&#1085;&#1077;&#1085;&#1080;&#1077; &#1087;&#1088;&#1080;&#1074;&#1099;&#1095;&#1082;&#1080; &#1079;&#1072; &#1076;&#1077;&#1085;&#1100;</title><defs/><g><text fill="#000000" font-family="sans-serif" font-size="14" font-weight="bold" lengthAdjust="spacing" textLength="373.2627" x="288.9292" y="27.9951">UC4: &#1054;&#1090;&#1084;&#1077;&#1090;&#1080;&#1090;&#1100; &#1074;&#1099;&#1087;&#1086;&#1083;&#1085;&#1077;&#1085;&#1080;&#1077; &#1087;&#1088;&#1080;&#1074;&#1099;&#1095;&#1082;&#1080; &#1079;&#1072; &#1076;&#1077;&#1085;&#1100;</text><rect fill="none" height="235.8672" style="stroke:#000000;stroke-width:1.5;" width="932.1211" x="10" y="254.4219"/><g><title>............</title><rect fill="#000000" fill-opacity="0.00000" height="386.3984" width="8" x="70.5498" y="120.8906"/><line style="stroke:#181818;stroke-width:0.5;stroke-dasharray:5,5;" x1="74" x2="74" y1="120.8906" y2="507.2891"/></g><g><title>UI</title><rect fill="#000000" fill-opacity="0.00000" height="386.3984" width="8" x="372.939" y="120.8906"/><line style="stroke:#181818;stroke-width:0.5;stroke-dasharray:5,5;" x1="376.7378" x2="376.7378" y1="120.8906" y2="507.2891"/></g><g><title>HabitController</title><rect fill="#000000" fill-opacity="0.00000" height="386.3984" width="8" x="602.5396" y="120.8906"/><line style="stroke:#181818;stroke-width:0.5;stroke-dasharray:5,5;" x1="606.2671" x2="606.2671" y1="120.8906" y2="507.2891"/></g><g><title>Habit</title><rect fill="#000000" fill-opacity="0.00000" height="386.3984" width="8" x="770.4028" y="120.8906"/><line style="stroke:#181818;stroke-width:0.5;stroke-dasharray:5,5;" x1="773.7168" x2="773.7168" y1="120.8906" y2="507.2891"/></g><g><title>HabitRepository</title><rect fill="#000000" fill-opacity="0.00000" height="386.3984" width="8" x="865.105" y="120.8906"/><line style="stroke:#181818;stroke-width:0.5;stroke-dasharray:5,5;" x1="869.0889" x2="869.0889" y1="120.8906" y2="507.2891"/></g><g class="participant participant-head" data-participant="User"><text fill="#000000" font-family="sans-serif" font-size="14" lengthAdjust="spacing" textLength="103.0996" x="20" y="117.5889">&#1055;&#1086;&#1083;&#1100;&#1079;&#1086;&#1074;&#1072;&#1090;&#1077;&#1083;&#1100;</text><ellipse cx="74.5498" cy="53.0938" fill="#E2E2F0" rx="8" ry="8" style="stroke:#181818;stroke-width:0.5;"/><path d="M74.5498,61.0938 L74.5498,88.0938 M61.5498,69.0938 L87.5498,69.0938 M74.5498,88.0938 L61.5498,103.0938 M74.5498,88.0938 L87.5498,103.0938" fill="none" style="stroke:#181818;stroke-width:0.5;"/></g><g class="participant participant-tail" data-participant="User"><text fill="#000000" font-family="sans-serif" font-size="14" lengthAdjust="spacing" textLength="103.0996" x="20" y="519.2842">&#1055;&#1086;&#1083;&#1100;&#1079;&#1086;&#1074;&#1072;&#1090;&#1077;&#1083;&#1100;</text><ellipse cx="74.5498" cy="531.0859" fill="#E2E2F0" rx="8" ry="8" style="stroke:#181818;stroke-width:0.5;"/><path d="M74.5498,539.0859 L74.5498,566.0859 M61.5498,547.0859 L87.5498,547.0859 M74.5498,566.0859 L61.5498,581.0859 M74.5498,566.0859 L87.5498,581.0859" fill="none" style="stroke:#181818;stroke-width:0.5;"/></g><g class="participant participant-head" data-participant="UI"><text fill="#000000" font-family="sans-serif" font-size="14" lengthAdjust="spacing" textLength="14.376" x="366.751" y="101.292">UI</text><text fill="#000000" font-family="sans-serif" font-size="14" lengthAdjust="spacing" textLength="130.4023" x="308.7378" y="117.5889">(&#1101;&#1082;&#1088;&#1072;&#1085; &#1087;&#1088;&#1080;&#1074;&#1099;&#1095;&#1082;&#1080;)</text><path d="M356.439,60.2969 L356.439,84.2969 M356.439,72.2969 L373.439,72.2969" fill="none" style="stroke:#181818;stroke-width:0.5;"/><ellipse cx="385.439" cy="72.2969" fill="#E2E2F0" rx="12" ry="12" style="stroke:#181818;stroke-width:0.5;"/></g><g class="participant participant-tail" data-participant="UI"><text fill="#000000" font-family="sans-serif" font-size="14" lengthAdjust="spacing" textLength="14.376" x="366.751" y="519.2842">UI</text><text fill="#000000" font-family="sans-serif" font-size="14" lengthAdjust="spacing" textLength="130.4023" x="308.7378" y="535.5811">(&#1101;&#1082;&#1088;&#1072;&#1085; &#1087;&#1088;&#1080;&#1074;&#1099;&#1095;&#1082;&#1080;)</text><path d="M356.439,542.8828 L356.439,566.8828 M356.439,554.8828 L373.439,554.8828" fill="none" style="stroke:#181818;stroke-width:0.5;"/><ellipse cx="385.439" cy="554.8828" fill="#E2E2F0" rx="12" ry="12" style="stroke:#181818;stroke-width:0.5;"/></g><g class="participant participant-head" data-participant="C"><text fill="#000000" font-family="sans-serif" font-size="14" lengthAdjust="spacing" textLength="106.5449" x="550.2671" y="117.5889">HabitController</text><ellipse cx="606.5396" cy="88.5938" fill="#E2E2F0" rx="12" ry="12" style="stroke:#181818;stroke-width:0.5;"/><polygon fill="#181818" points="602.5396,76.5938,608.5396,71.5938,606.5396,76.5938,608.5396,81.5938,602.5396,76.5938" style="stroke:#181818;stroke-width:1;"/></g><g class="participant participant-tail" data-participant="C"><text fill="#000000" font-family="sans-serif" font-size="14" lengthAdjust="spacing" textLength="106.5449" x="550.2671" y="519.2842">HabitController</text><ellipse cx="606.5396" cy="538.5859" fill="#E2E2F0" rx="12" ry="12" style="stroke:#181818;stroke-width:0.5;"/><polygon fill="#181818" points="602.5396,526.5859,608.5396,521.5859,606.5396,526.5859,608.5396,531.5859,602.5396,526.5859" style="stroke:#181818;stroke-width:1;"/></g><g class="participant participant-head" data-participant="H"><text fill="#000000" font-family="sans-serif" font-size="14" lengthAdjust="spacing" textLength="37.3721" x="752.7168" y="117.5889">Habit</text><ellipse cx="774.4028" cy="88.5938" fill="#E2E2F0" rx="12" ry="12" style="stroke:#181818;stroke-width:0.5;"/><line style="stroke:#181818;stroke-width:0.5;" x1="762.4028" x2="786.4028" y1="102.5938" y2="102.5938"/></g><g class="participant participant-tail" data-participant="H"><text fill="#000000" font-family="sans-serif" font-size="14" lengthAdjust="spacing" textLength="37.3721" x="752.7168" y="519.2842">Habit</text><ellipse cx="774.4028" cy="538.5859" fill="#E2E2F0" rx="12" ry="12" style="stroke:#181818;stroke-width:0.5;"/><line style="stroke:#181818;stroke-width:0.5;" x1="762.4028" x2="786.4028" y1="552.5859" y2="552.5859"/></g><g class="participant participant-head" data-participant="R"><text fill="#000000" font-family="sans-serif" font-size="14" lengthAdjust="spacing" textLength="112.4443" x="809.8828" y="101.292">HabitRepository</text><text fill="#000000" font-family="sans-serif" font-size="14" lengthAdjust="spacing" textLength="120.0322" x="806.0889" y="117.5889">(&#1041;&#1044;/&#1093;&#1088;&#1072;&#1085;&#1080;&#1083;&#1080;&#1097;&#1077;)</text><path d="M851.105,52.2969 C851.105,42.2969 869.105,42.2969 869.105,42.2969 C869.105,42.2969 887.105,42.2969 887.105,52.2969 L887.105,78.2969 C887.105,88.2969 869.105,88.2969 869.105,88.2969 C869.105,88.2969 851.105,88.2969 851.105,78.2969 L851.105,52.2969" fill="#E2E2F0" style="stroke:#181818;stroke-width:0.5;"/><path d="M851.105,52.2969 C851.105,62.2969 869.105,62.2969 869.105,62.2969 C869.105,62.2969 887.105,62.2969 887.105,52.2969" fill="none" style="stroke:#181818;stroke-width:0.5;"/></g><g class="participant participant-tail" data-participant="R"><text fill="#000000" font-family="sans-serif" font-size="14" lengthAdjust="spacing" textLength="112.4443" x="809.8828" y="519.2842">HabitRepository</text><text fill="#000000" font-family="sans-serif" font-size="14" lengthAdjust="spacing" textLength="120.0322" x="806.0889" y="535.5811">(&#1041;&#1044;/&#1093;&#1088;&#1072;&#1085;&#1080;&#1083;&#1080;&#1097;&#1077;)</text><path d="M851.105,548.8828 C851.105,538.8828 869.105,538.8828 869.105,538.8828 C869.105,538.8828 887.105,538.8828 887.105,548.8828 L887.105,574.8828 C887.105,584.8828 869.105,584.8828 869.105,584.8828 C869.105,584.8828 851.105,584.8828 851.105,574.8828 L851.105,548.8828" fill="#E2E2F0" style="stroke:#181818;stroke-width:0.5;"/><path d="M851.105,548.8828 C851.105,558.8828 869.105,558.8828 869.105,558.8828 C869.105,558.8828 887.105,558.8828 887.105,548.8828" fill="none" style="stroke:#181818;stroke-width:0.5;"/></g><g class="message" data-participant-1="User" data-participant-2="UI"><polygon fill="#181818" points="364.939,148.0234,374.939,152.0234,364.939,156.0234,368.939,152.0234" style="stroke:#181818;stroke-width:1;"/><line style="stroke:#181818;stroke-width:1;" x1="74.5498" x2="370.939" y1="152.0234" y2="152.0234"/><text fill="#000000" font-family="sans-serif" font-size="13" lengthAdjust="spacing" textLength="242.4678" x="81.5498" y="146.9575">&#1053;&#1072;&#1078;&#1080;&#1084;&#1072;&#1077;&#1090; "&#1054;&#1090;&#1084;&#1077;&#1090;&#1080;&#1090;&#1100; &#1074;&#1099;&#1087;&#1086;&#1083;&#1085;&#1077;&#1085;&#1080;&#1077;"</text></g><g class="message" data-participant-1="UI" data-participant-2="C"><polygon fill="#181818" points="594.5396,177.1563,604.5396,181.1563,594.5396,185.1563,598.5396,181.1563" style="stroke:#181818;stroke-width:1;"/><line style="stroke:#181818;stroke-width:1;" x1="376.939" x2="600.5396" y1="181.1563" y2="181.1563"/><text fill="#000000" font-family="sans-serif" font-size="13" lengthAdjust="spacing" textLength="176.3442" x="383.939" y="176.0903">markAsDone(habitId, date)</text></g><g class="message" data-participant-1="C" data-participant-2="R"><polygon fill="#181818" points="857.105,206.2891,867.105,210.2891,857.105,214.2891,861.105,210.2891" style="stroke:#181818;stroke-width:1;"/><line style="stroke:#181818;stroke-width:1;" x1="606.5396" x2="863.105" y1="210.2891" y2="210.2891"/><text fill="#000000" font-family="sans-serif" font-size="13" lengthAdjust="spacing" textLength="111.4458" x="613.5396" y="205.2231">getHabit(habitId)</text></g><g class="message" data-participant-1="R" data-participant-2="C"><polygon fill="#181818" points="617.5396,235.4219,607.5396,239.4219,617.5396,243.4219,613.5396,239.4219" style="stroke:#181818;stroke-width:1;"/><line style="stroke:#181818;stroke-width:1;stroke-dasharray:2,2;" x1="611.5396" x2="868.105" y1="239.4219" y2="239.4219"/><text fill="#000000" font-family="sans-serif" font-size="13" lengthAdjust="spacing" textLength="68.1167" x="623.5396" y="234.356">Habit data</text></g><path d="M10,254.4219 L74.4429,254.4219 L74.4429,261.5547 L64.4429,271.5547 L10,271.5547 L10,254.4219" fill="#EEEEEE" style="stroke:#000000;stroke-width:1.5;"/><rect fill="none" height="235.8672" style="stroke:#000000;stroke-width:1.5;" width="932.1211" x="10" y="254.4219"/><text fill="#000000" font-family="sans-serif" font-size="13" font-weight="bold" lengthAdjust="spacing" textLength="19.4429" x="25" y="267.4888">alt</text><text fill="#000000" font-family="sans-serif" font-size="11" font-weight="bold" lengthAdjust="spacing" textLength="132.1182" x="89.4429" y="266.6323">[&#1055;&#1088;&#1080;&#1074;&#1099;&#1095;&#1082;&#1072; &#1085;&#1072;&#1081;&#1076;&#1077;&#1085;&#1072;]</text><g class="message" data-participant-1="C" data-participant-2="H"><polygon fill="#181818" points="762.4028,288.6875,772.4028,292.6875,762.4028,296.6875,766.4028,292.6875" style="stroke:#181818;stroke-width:1;"/><line style="stroke:#181818;stroke-width:1;" x1="606.5396" x2="768.4028" y1="292.6875" y2="292.6875"/><text fill="#000000" font-family="sans-serif" font-size="13" lengthAdjust="spacing" textLength="143.8633" x="613.5396" y="287.6216">markCompleted(date)</text></g><g class="message" data-participant-1="C" data-participant-2="R"><polygon fill="#181818" points="857.105,317.8203,867.105,321.8203,857.105,325.8203,861.105,321.8203" style="stroke:#181818;stroke-width:1;"/><line style="stroke:#181818;stroke-width:1;" x1="606.5396" x2="863.105" y1="321.8203" y2="321.8203"/><text fill="#000000" font-family="sans-serif" font-size="13" lengthAdjust="spacing" textLength="50.3496" x="613.5396" y="316.7544">save(H)</text></g><g class="message" data-participant-1="R" data-participant-2="C"><polygon fill="#181818" points="617.5396,346.9531,607.5396,350.9531,617.5396,354.9531,613.5396,350.9531" style="stroke:#181818;stroke-width:1;"/><line style="stroke:#181818;stroke-width:1;stroke-dasharray:2,2;" x1="611.5396" x2="868.105" y1="350.9531" y2="350.9531"/><text fill="#000000" font-family="sans-serif" font-size="13" lengthAdjust="spacing" textLength="18.7573" x="623.5396" y="345.8872">OK</text></g><g class="message" data-participant-1="C" data-participant-2="UI"><polygon fill="#181818" points="387.939,376.0859,377.939,380.0859,387.939,384.0859,383.939,380.0859" style="stroke:#181818;stroke-width:1;"/><line style="stroke:#181818;stroke-width:1;stroke-dasharray:2,2;" x1="381.939" x2="605.5396" y1="380.0859" y2="380.0859"/><text fill="#000000" font-family="sans-serif" font-size="13" lengthAdjust="spacing" textLength="205.6006" x="393.939" y="375.02">&#1054;&#1073;&#1085;&#1086;&#1074;&#1083;&#1077;&#1085;&#1080;&#1077; &#1089;&#1087;&#1080;&#1089;&#1082;&#1072; &#1087;&#1088;&#1080;&#1074;&#1099;&#1095;&#1077;&#1082;</text></g><g class="message" data-participant-1="UI" data-participant-2="User"><polygon fill="#181818" points="85.5498,405.2188,75.5498,409.2188,85.5498,413.2188,81.5498,409.2188" style="stroke:#181818;stroke-width:1;"/><line style="stroke:#181818;stroke-width:1;stroke-dasharray:2,2;" x1="79.5498" x2="375.939" y1="409.2188" y2="409.2188"/><text fill="#000000" font-family="sans-serif" font-size="13" lengthAdjust="spacing" textLength="278.3892" x="91.5498" y="404.1528">&#1055;&#1086;&#1082;&#1072;&#1079; &#1091;&#1089;&#1087;&#1077;&#1096;&#1085;&#1086;&#1075;&#1086; &#1074;&#1099;&#1087;&#1086;&#1083;&#1085;&#1077;&#1085;&#1080;&#1103; &#1087;&#1088;&#1080;&#1074;&#1099;&#1095;&#1082;&#1080;</text></g><line style="stroke:#000000;stroke-width:1;stroke-dasharray:2,2;" x1="10" x2="942.1211" y1="418.2188" y2="418.2188"/><text fill="#000000" font-family="sans-serif" font-size="11" font-weight="bold" lengthAdjust="spacing" textLength="151.0083" x="15" y="428.4292">[&#1055;&#1088;&#1080;&#1074;&#1099;&#1095;&#1082;&#1072; &#1085;&#1077; &#1085;&#1072;&#1081;&#1076;&#1077;&#1085;&#1072;]</text><g class="message" data-participant-1="C" data-participant-2="UI"><polygon fill="#181818" points="387.939,449.1563,377.939,453.1563,387.939,457.1563,383.939,453.1563" style="stroke:#181818;stroke-width:1;"/><line style="stroke:#181818;stroke-width:1;stroke-dasharray:2,2;" x1="381.939" x2="605.5396" y1="453.1563" y2="453.1563"/><text fill="#000000" font-family="sans-serif" font-size="13" lengthAdjust="spacing" textLength="147.6719" x="393.939" y="448.0903">&#1054;&#1096;&#1080;&#1073;&#1082;&#1072; (&#1085;&#1077; &#1085;&#1072;&#1081;&#1076;&#1077;&#1085;&#1086;)</text></g><g class="message" data-participant-1="UI" data-participant-2="User"><polygon fill="#181818" points="85.5498,478.2891,75.5498,482.2891,85.5498,486.2891,81.5498,482.2891" style="stroke:#181818;stroke-width:1;"/><line style="stroke:#181818;stroke-width:1;stroke-dasharray:2,2;" x1="79.5498" x2="375.939" y1="482.2891" y2="482.2891"/><text fill="#000000" font-family="sans-serif" font-size="13" lengthAdjust="spacing" textLength="154.5908" x="91.5498" y="477.2231">&#1057;&#1086;&#1086;&#1073;&#1097;&#1077;&#1085;&#1080;&#1077; &#1086;&#1073; &#1086;&#1096;&#1080;&#1073;&#1082;&#1077;</text></g><!--SRC=[ZLBBJjj05DtFLrnvvKX5R5YnGAhSHI8MI96oOpF1epQgiP4z86K7GGYgfa98tJPH_o1G1an2p2_S-IFEs4ueIXOiCl7CFVUSSn-wfoD5dM1hctXa1_pC1cTk1tP8V6T_yWiNFECv6_noDiGlzXGV2DbBdd9E_CWJudi7i4CXv85EKl9uxFBi4D62xtW2KkFk7icCEfbAHJSvZaEPzidhjFPZt_xYAPWdF5-HQ5H9BN6Gn3fD8lAQijlJGNMBL5h60w5YtTFzEbg-DKKejUpAJDMlRNMKP3qux4EIR_ZtfhseL24uGzq_s5HoRI6SJThOWJAXEt-0UW3g6V_e4KhyIByyWMnm1A0ubEdtpzcN95R-DsUc5NuY-5CD8GA7QGFpLUdIw0BH46tQgFFBWCkGQ7EaYSVl-eGfpE7jgPe5JmHHITkifOFay2XIMeL-9Lg7dMecJvJVT4zlQdkx5MBPW17VWjPDSxRS1dk6WdESfVp_SpCyHRuhtX6uJeB2BGMG_4Zsl4mrzgha_CV5clRPwvLT42h2CDTLRjQM_-OUIZagS6X_5LuqLjt-XPU2RzrEB9OVLnnBAeET2ry1]--></g></svg>