<svg xmlns="http://www.w3.org/2000/svg" xmlns:xlink="http://www.w3.org/1999/xlink" contentStyleType="text/css" data-diagram-type="CLASS" height="781px" preserveAspectRatio="none" style="width:565px;height:781px;background:#FFFFFF;" version="1.1" viewBox="0 0 565 781" width="565px" zoomAndPan="magnify"><title>ER diagram - Smart Todo List</title><defs/><g><g class="title" data-source-line="1"><text fill="#000000" font-family="sans-serif" font-size="14" font-weight="bold" lengthAdjust="spacing" textLength="231.0205" x="160.0651" y="22.9951">ER diagram - Smart Todo List</text></g><!--class Users--><g class="entity" data-entity="Users" data-source-line="3" data-uid="ent0002" id="entity_Users"><rect fill="#F1F1F1" height="113.1875" rx="2.5" ry="2.5" style="stroke:#181818;stroke-width:0.5;" width="190.5547" x="96.93" y="44.2969"/><ellipse cx="168.3553" cy="60.2969" fill="#ADD1B2" rx="11" ry="11" style="stroke:#181818;stroke-width:1;"/><path d="M172.4647,66.2969 L164.7459,66.2969 L164.7459,53.9063 L172.4647,53.9063 L172.4647,56.0625 L167.199,56.0625 L167.199,58.7344 L171.9647,58.7344 L171.9647,60.8906 L167.199,60.8906 L167.199,64.1406 L172.4647,64.1406 L172.4647,66.2969 Z " fill="#000000"/><text fill="#000000" font-family="sans-serif" font-size="14" lengthAdjust="spacing" textLength="39.2041" x="188.8553" y="65.1436">Users</text><line style="stroke:#181818;stroke-width:0.5;" x1="97.93" x2="286.4847" y1="76.2969" y2="76.2969"/><g data-visibility-modifier="IE_MANDATORY"><ellipse cx="107.93" cy="89.9453" fill="#000000" rx="3" ry="3" style="stroke:#000000;stroke-width:1;"/></g><text fill="#000000" font-family="sans-serif" font-size="14" lengthAdjust="spacing" textLength="164.5547" x="116.93" y="93.292">user_id : INTEGER &#171;PK&#187;</text><text fill="#000000" font-family="sans-serif" font-size="14" lengthAdjust="spacing" textLength="123.8467" x="116.93" y="109.5889">username  : TEXT</text><text fill="#000000" font-family="sans-serif" font-size="14" lengthAdjust="spacing" textLength="105.5674" x="116.93" y="125.8857">email     : TEXT</text><text fill="#000000" font-family="sans-serif" font-size="14" lengthAdjust="spacing" textLength="123.8604" x="116.93" y="142.1826">created_at : TEXT</text><line style="stroke:#181818;stroke-width:0.5;" x1="97.93" x2="286.4847" y1="149.4844" y2="149.4844"/></g><!--class Projects--><g class="entity" data-entity="Projects" data-source-line="10" data-uid="ent0003" id="entity_Projects"><rect fill="#F1F1F1" height="129.4844" rx="2.5" ry="2.5" style="stroke:#181818;stroke-width:0.5;" width="212.416" x="7" y="217.4869"/><ellipse cx="81.0845" cy="233.4869" fill="#ADD1B2" rx="11" ry="11" style="stroke:#181818;stroke-width:1;"/><path d="M85.1938,239.4869 L77.4751,239.4869 L77.4751,227.0962 L85.1938,227.0962 L85.1938,229.2525 L79.9282,229.2525 L79.9282,231.9244 L84.6938,231.9244 L84.6938,234.0806 L79.9282,234.0806 L79.9282,237.3306 L85.1938,237.3306 L85.1938,239.4869 Z " fill="#000000"/><text fill="#000000" font-family="sans-serif" font-size="14" lengthAdjust="spacing" textLength="55.7471" x="101.5845" y="238.3336">Projects</text><line style="stroke:#181818;stroke-width:0.5;" x1="8" x2="218.416" y1="249.4869" y2="249.4869"/><g data-visibility-modifier="IE_MANDATORY"><ellipse cx="18" cy="263.1353" fill="#000000" rx="3" ry="3" style="stroke:#000000;stroke-width:1;"/></g><text fill="#000000" font-family="sans-serif" font-size="14" lengthAdjust="spacing" textLength="182.916" x="27" y="266.482">project_id : INTEGER &#171;PK&#187;</text><text fill="#000000" font-family="sans-serif" font-size="14" lengthAdjust="spacing" textLength="124.4619" x="27" y="282.7789">name         : TEXT</text><text fill="#000000" font-family="sans-serif" font-size="14" lengthAdjust="spacing" textLength="131.4482" x="27" y="299.0757">description  : TEXT</text><text fill="#000000" font-family="sans-serif" font-size="14" lengthAdjust="spacing" textLength="132.7607" x="27" y="315.3726">created_at   : TEXT</text><text fill="#000000" font-family="sans-serif" font-size="14" lengthAdjust="spacing" textLength="186.416" x="27" y="331.6695">user_id      : INTEGER &#171;FK&#187;</text><line style="stroke:#181818;stroke-width:0.5;" x1="8" x2="218.416" y1="338.9712" y2="338.9712"/></g><!--class Categories--><g class="entity" data-entity="Categories" data-source-line="18" data-uid="ent0004" id="entity_Categories"><rect fill="#F1F1F1" height="113.1875" rx="2.5" ry="2.5" style="stroke:#181818;stroke-width:0.5;" width="221.8906" x="336.26" y="455.8569"/><ellipse cx="405.2244" cy="471.8569" fill="#ADD1B2" rx="11" ry="11" style="stroke:#181818;stroke-width:1;"/><path d="M409.3337,477.8569 L401.615,477.8569 L401.615,465.4662 L409.3337,465.4662 L409.3337,467.6225 L404.0681,467.6225 L404.0681,470.2944 L408.8337,470.2944 L408.8337,472.4506 L404.0681,472.4506 L404.0681,475.7006 L409.3337,475.7006 L409.3337,477.8569 Z " fill="#000000"/><text fill="#000000" font-family="sans-serif" font-size="14" lengthAdjust="spacing" textLength="75.4619" x="425.7244" y="476.7036">Categories</text><line style="stroke:#181818;stroke-width:0.5;" x1="337.26" x2="557.1506" y1="487.8569" y2="487.8569"/><g data-visibility-modifier="IE_MANDATORY"><ellipse cx="347.26" cy="501.5053" fill="#000000" rx="3" ry="3" style="stroke:#000000;stroke-width:1;"/></g><text fill="#000000" font-family="sans-serif" font-size="14" lengthAdjust="spacing" textLength="195.8906" x="356.26" y="504.852">category_id : INTEGER &#171;PK&#187;</text><text fill="#000000" font-family="sans-serif" font-size="14" lengthAdjust="spacing" textLength="128.9121" x="356.26" y="521.1489">name          : TEXT</text><text fill="#000000" font-family="sans-serif" font-size="14" lengthAdjust="spacing" textLength="135.8984" x="356.26" y="537.4457">description   : TEXT</text><text fill="#000000" font-family="sans-serif" font-size="14" lengthAdjust="spacing" textLength="137.2109" x="356.26" y="553.7426">created_at    : TEXT</text><line style="stroke:#181818;stroke-width:0.5;" x1="337.26" x2="557.1506" y1="561.0444" y2="561.0444"/></g><!--class Tasks--><g class="entity" data-entity="Tasks" data-source-line="25" data-uid="ent0005" id="entity_Tasks"><rect fill="#F1F1F1" height="210.9688" rx="2.5" ry="2.5" style="stroke:#181818;stroke-width:0.5;" width="217.4268" x="83.49" y="406.9669"/><ellipse cx="168.0403" cy="422.9669" fill="#ADD1B2" rx="11" ry="11" style="stroke:#181818;stroke-width:1;"/><path d="M172.1497,428.9669 L164.4309,428.9669 L164.4309,416.5762 L172.1497,416.5762 L172.1497,418.7325 L166.884,418.7325 L166.884,421.4044 L171.6497,421.4044 L171.6497,423.5606 L166.884,423.5606 L166.884,426.8106 L172.1497,426.8106 L172.1497,428.9669 Z " fill="#000000"/><text fill="#000000" font-family="sans-serif" font-size="14" lengthAdjust="spacing" textLength="39.8262" x="188.5403" y="427.8136">Tasks</text><line style="stroke:#181818;stroke-width:0.5;" x1="84.49" x2="299.9168" y1="438.9669" y2="438.9669"/><g data-visibility-modifier="IE_MANDATORY"><ellipse cx="94.49" cy="452.6153" fill="#000000" rx="3" ry="3" style="stroke:#000000;stroke-width:1;"/></g><text fill="#000000" font-family="sans-serif" font-size="14" lengthAdjust="spacing" textLength="176.8389" x="103.49" y="455.962">task_id    : INTEGER &#171;PK&#187;</text><text fill="#000000" font-family="sans-serif" font-size="14" lengthAdjust="spacing" textLength="107.6797" x="103.49" y="472.2589">title        : TEXT</text><text fill="#000000" font-family="sans-serif" font-size="14" lengthAdjust="spacing" textLength="131.4482" x="103.49" y="488.5557">description  : TEXT</text><text fill="#000000" font-family="sans-serif" font-size="14" lengthAdjust="spacing" textLength="131.8994" x="103.49" y="504.8526">due_date     : TEXT</text><text fill="#000000" font-family="sans-serif" font-size="14" lengthAdjust="spacing" textLength="117.4756" x="103.49" y="521.1495">priority     : TEXT</text><text fill="#000000" font-family="sans-serif" font-size="14" lengthAdjust="spacing" textLength="118.877" x="103.49" y="537.4464">status       : TEXT</text><text fill="#000000" font-family="sans-serif" font-size="14" lengthAdjust="spacing" textLength="132.7607" x="103.49" y="553.7432">created_at   : TEXT</text><text fill="#000000" font-family="sans-serif" font-size="14" lengthAdjust="spacing" textLength="137.3408" x="103.49" y="570.0401">updated_at   : TEXT</text><text fill="#000000" font-family="sans-serif" font-size="14" lengthAdjust="spacing" textLength="186.416" x="103.49" y="586.337">user_id      : INTEGER &#171;FK&#187;</text><text fill="#000000" font-family="sans-serif" font-size="14" lengthAdjust="spacing" textLength="191.4268" x="103.49" y="602.6339">project_id   : INTEGER &#171;FK&#187;</text><line style="stroke:#181818;stroke-width:0.5;" x1="84.49" x2="299.9168" y1="609.9356" y2="609.9356"/></g><!--class TaskCategories--><g class="entity" data-entity="TaskCategories" data-source-line="38" data-uid="ent0006" id="entity_TaskCategories"><rect fill="#F1F1F1" height="96.8906" rx="2.5" ry="2.5" style="stroke:#181818;stroke-width:0.5;" width="243.5742" x="197.42" y="677.9369"/><ellipse cx="257.46" cy="693.9369" fill="#ADD1B2" rx="11" ry="11" style="stroke:#181818;stroke-width:1;"/><path d="M261.5694,699.9369 L253.8507,699.9369 L253.8507,687.5463 L261.5694,687.5463 L261.5694,689.7025 L256.3038,689.7025 L256.3038,692.3744 L261.0694,692.3744 L261.0694,694.5306 L256.3038,694.5306 L256.3038,697.7806 L261.5694,697.7806 L261.5694,699.9369 Z " fill="#000000"/><text fill="#000000" font-family="sans-serif" font-size="14" lengthAdjust="spacing" textLength="114.9941" x="277.96" y="698.7836">Task_Categories</text><line style="stroke:#181818;stroke-width:0.5;" x1="198.42" x2="439.9942" y1="709.9369" y2="709.9369"/><g data-visibility-modifier="IE_MANDATORY"><ellipse cx="208.42" cy="723.5853" fill="#000000" rx="3" ry="3" style="stroke:#000000;stroke-width:1;"/></g><text fill="#000000" font-family="sans-serif" font-size="14" lengthAdjust="spacing" textLength="202.9727" x="217.42" y="726.932">task_id     : INTEGER &#171;PK,FK&#187;</text><g data-visibility-modifier="IE_MANDATORY"><ellipse cx="208.42" cy="739.8822" fill="#000000" rx="3" ry="3" style="stroke:#000000;stroke-width:1;"/></g><text fill="#000000" font-family="sans-serif" font-size="14" lengthAdjust="spacing" textLength="217.5742" x="217.42" y="743.2289">category_id : INTEGER &#171;PK,FK&#187;</text><text fill="#000000" font-family="sans-serif" font-size="14" lengthAdjust="spacing" textLength="141.4424" x="217.42" y="759.5257">assigned_at   : TEXT</text><line style="stroke:#181818;stroke-width:0.5;" x1="198.42" x2="439.9942" y1="766.8275" y2="766.8275"/></g><!--link Users to Projects--><g class="link" data-entity-1="Users" data-entity-2="Projects" data-link-type="crowfoot" data-source-line="44" data-uid="lnk7" id="link_Users_Projects"><path codeLine="44" d="M164.4184,164.9695 C156.1384,183.7895 157.293,181.1428 148.743,200.5628" fill="none" id="Users-Projects" style="stroke:#181818;stroke-width:1;"/><line style="stroke:#181818;stroke-width:1;" x1="162.3679" x2="169.6905" y1="159.6974" y2="162.919"/><line style="stroke:#181818;stroke-width:1;" x1="161.1597" x2="168.4824" y1="162.4434" y2="165.665"/><line style="stroke:#181818;stroke-width:1;" x1="164.4184" x2="167.64" y1="164.9695" y2="157.6469"/><line style="stroke:#181818;stroke-width:1;" x1="144.7136" x2="146.9813" y1="209.7151" y2="219.4545"/><line style="stroke:#181818;stroke-width:1;" x1="144.7136" x2="135.9987" y1="209.7151" y2="214.6192"/><line style="stroke:#181818;stroke-width:1;" x1="144.7136" x2="141.49" y1="209.7151" y2="217.0369"/><ellipse cx="147.1312" cy="204.2237" fill="none" rx="4" ry="4" style="stroke:#181818;stroke-width:1;"/></g><!--link Users to Tasks--><g class="link" data-entity-1="Users" data-entity-2="Tasks" data-link-type="crowfoot" data-source-line="45" data-uid="lnk8" id="link_Users_Tasks"><path codeLine="45" d="M221.8494,165.3933 C229.3394,183.9133 233.45,197.4769 237.21,217.4869 C247.83,274.0469 244.87,289.9269 237.21,346.9669 C234.59,366.4769 234.6682,369.4975 229.7482,389.1175" fill="none" id="Users-Tasks" style="stroke:#181818;stroke-width:1;"/><line style="stroke:#181818;stroke-width:1;" x1="216.6415" x2="224.0579" y1="163.1848" y2="160.1854"/><line style="stroke:#181818;stroke-width:1;" x1="217.7663" x2="225.1827" y1="165.966" y2="162.9666"/><line style="stroke:#181818;stroke-width:1;" x1="221.8494" x2="218.85" y1="165.3933" y2="157.9769"/><line style="stroke:#181818;stroke-width:1;" x1="227.3159" x2="231.1898" y1="398.8171" y2="408.0363"/><line style="stroke:#181818;stroke-width:1;" x1="227.3159" x2="219.5502" y1="398.8171" y2="405.1175"/><line style="stroke:#181818;stroke-width:1;" x1="227.3159" x2="225.37" y1="398.8171" y2="406.5769"/><ellipse cx="228.7753" cy="392.9973" fill="none" rx="4" ry="4" style="stroke:#181818;stroke-width:1;"/></g><!--link Projects to Tasks--><g class="link" data-entity-1="Projects" data-entity-2="Tasks" data-link-type="crowfoot" data-source-line="46" data-uid="lnk9" id="link_Projects_Tasks"><path codeLine="46" d="M138.0369,354.9668 C144.4269,373.4268 143.0565,369.489 150.0665,389.719" fill="none" id="Projects-Tasks" style="stroke:#181818;stroke-width:1;"/><line style="stroke:#181818;stroke-width:1;" x1="132.9485" x2="140.5084" y1="352.4953" y2="349.8784"/><line style="stroke:#181818;stroke-width:1;" x1="133.9298" x2="141.4897" y1="355.3302" y2="352.7133"/><line style="stroke:#181818;stroke-width:1;" x1="138.0369" x2="135.42" y1="354.9668" y2="347.4069"/><line style="stroke:#181818;stroke-width:1;" x1="153.3407" x2="161.6293" y1="399.1678" y2="404.7624"/><line style="stroke:#181818;stroke-width:1;" x1="153.3407" x2="150.2907" y1="399.1678" y2="408.6914"/><line style="stroke:#181818;stroke-width:1;" x1="153.3407" x2="155.96" y1="399.1678" y2="406.7269"/><ellipse cx="151.3762" cy="393.4985" fill="none" rx="4" ry="4" style="stroke:#181818;stroke-width:1;"/></g><!--link Tasks to TaskCategories--><g class="link" data-entity-1="Tasks" data-entity-2="TaskCategories" data-link-type="crowfoot" data-source-line="47" data-uid="lnk10" id="link_Tasks_TaskCategories"><path codeLine="47" d="M259.0735,625.0383 C271.5135,645.7883 270.6116,644.3105 281.2216,662.0005" fill="none" id="Tasks-TaskCategories" style="stroke:#181818;stroke-width:1;"/><line style="stroke:#181818;stroke-width:1;" x1="253.5861" x2="260.4475" y1="623.6643" y2="619.5508"/><line style="stroke:#181818;stroke-width:1;" x1="255.1286" x2="261.99" y1="626.2374" y2="622.1238"/><line style="stroke:#181818;stroke-width:1;" x1="259.0735" x2="254.96" y1="625.0383" y2="618.1769"/><line style="stroke:#181818;stroke-width:1;" x1="286.3652" x2="295.6255" y1="670.5762" y2="674.3508"/><line style="stroke:#181818;stroke-width:1;" x1="286.3652" x2="285.3345" y1="670.5762" y2="680.523"/><line style="stroke:#181818;stroke-width:1;" x1="286.3652" x2="290.48" y1="670.5762" y2="677.4369"/><ellipse cx="283.2791" cy="665.4308" fill="none" rx="4" ry="4" style="stroke:#181818;stroke-width:1;"/></g><!--link Categories to TaskCategories--><g class="link" data-entity-1="Categories" data-entity-2="TaskCategories" data-link-type="crowfoot" data-source-line="48" data-uid="lnk11" id="link_Categories_TaskCategories"><path codeLine="48" d="M409.2743,576.255 C388.9043,609.985 376.6882,630.2204 357.2882,662.3304" fill="none" id="Categories-TaskCategories" style="stroke:#181818;stroke-width:1;"/><line style="stroke:#181818;stroke-width:1;" x1="407.9181" x2="414.7662" y1="570.7631" y2="574.8987"/><line style="stroke:#181818;stroke-width:1;" x1="406.3673" x2="413.2153" y1="573.3311" y2="577.4668"/><line style="stroke:#181818;stroke-width:1;" x1="409.2743" x2="413.41" y1="576.255" y2="569.4069"/><line style="stroke:#181818;stroke-width:1;" x1="352.117" x2="353.1155" y1="670.8896" y2="680.8396"/><line style="stroke:#181818;stroke-width:1;" x1="352.117" x2="342.8445" y1="670.8896" y2="674.6342"/><line style="stroke:#181818;stroke-width:1;" x1="352.117" x2="347.98" y1="670.8896" y2="677.7369"/><ellipse cx="355.2197" cy="665.7541" fill="none" rx="4" ry="4" style="stroke:#181818;stroke-width:1;"/></g><!--SRC=[bLF1ReCm3Btp5LQFq_Y1gUfbOjEqQQes9ks68c8XRuMWn1ogTl- -G0841bMNa_rYyfxz31CV498ta2GABKg8uRqKcY5LKi4B6OuYh9Zu29iFWzfiG1Ze8ZX503VGs3WZ2NVmz9ecZ_QfxNR_lDlPo_Qg4YM2lKoJpzH2M0ewG7i6ADSe66KckCT-HiwzLb-OiwFj4yzSktI5t17xCv19DBcccabLon82jE_Clp0oFBGCWSXx-t6XDA6JEQPUQEw0upLALwIkQ5sOM2hCjzFHHLu2szZtig20kosuRbQomKnQ1TFQMfFjsF9FKCE26pD_TsNQjVot1n3km6MFsc5aCwDQx8zPmQHcexhrd9SCxMk4CLHKitQi7FVddCznh4x3Fa_HphPesFK9wYmDe55-57IoMF0B]--></g></svg>