<svg xmlns="http://www.w3.org/2000/svg" xmlns:xlink="http://www.w3.org/1999/xlink" contentStyleType="text/css" data-diagram-type="CLASS" height="765px" preserveAspectRatio="none" style="width:488px;height:765px;background:#FFFFFF;" version="1.1" viewBox="0 0 488 765" width="488px" zoomAndPan="magnify"><title>ER diagram - Smart Todo List</title><defs/><g><g class="title" data-source-line="1"><text fill="#000000" font-family="sans-serif" font-size="14" font-weight="bold" lengthAdjust="spacing" textLength="231.0205" x="121.8201" y="22.9951">ER diagram - Smart Todo List</text></g><!--class Users--><g class="entity" data-entity="Users" data-source-line="3" data-uid="ent0002" id="entity_Users"><rect fill="#F1F1F1" height="113.1875" rx="2.5" ry="2.5" style="stroke:#181818;stroke-width:0.5;" width="195.0049" x="18.21" y="44.2969"/><ellipse cx="91.8604" cy="60.2969" fill="#ADD1B2" rx="11" ry="11" style="stroke:#181818;stroke-width:1;"/><path d="M95.9698,66.2969 L88.251,66.2969 L88.251,53.9063 L95.9698,53.9063 L95.9698,56.0625 L90.7041,56.0625 L90.7041,58.7344 L95.4698,58.7344 L95.4698,60.8906 L90.7041,60.8906 L90.7041,64.1406 L95.9698,64.1406 L95.9698,66.2969 Z " fill="#000000"/><text fill="#000000" font-family="sans-serif" font-size="14" lengthAdjust="spacing" textLength="39.2041" x="112.3604" y="65.1436">Users</text><line style="stroke:#181818;stroke-width:0.5;" x1="19.21" x2="212.2149" y1="76.2969" y2="76.2969"/><g data-visibility-modifier="IE_MANDATORY"><ellipse cx="29.21" cy="89.9453" fill="#000000" rx="3" ry="3" style="stroke:#000000;stroke-width:1;"/></g><text fill="#000000" font-family="sans-serif" font-size="14" lengthAdjust="spacing" textLength="169.0049" x="38.21" y="93.292">user_id  : INTEGER &#171;PK&#187;</text><text fill="#000000" font-family="sans-serif" font-size="14" lengthAdjust="spacing" textLength="128.2969" x="38.21" y="109.5889">username   : TEXT</text><text fill="#000000" font-family="sans-serif" font-size="14" lengthAdjust="spacing" textLength="110.0176" x="38.21" y="125.8857">email      : TEXT</text><text fill="#000000" font-family="sans-serif" font-size="14" lengthAdjust="spacing" textLength="123.8604" x="38.21" y="142.1826">created_at : TEXT</text><line style="stroke:#181818;stroke-width:0.5;" x1="19.21" x2="212.2149" y1="149.4844" y2="149.4844"/></g><!--class Projects--><g class="entity" data-entity="Projects" data-source-line="10" data-uid="ent0003" id="entity_Projects"><rect fill="#F1F1F1" height="129.4844" rx="2.5" ry="2.5" style="stroke:#181818;stroke-width:0.5;" width="216.8662" x="7.28" y="217.4769"/><ellipse cx="83.5896" cy="233.4769" fill="#ADD1B2" rx="11" ry="11" style="stroke:#181818;stroke-width:1;"/><path d="M87.6989,239.4769 L79.9802,239.4769 L79.9802,227.0863 L87.6989,227.0863 L87.6989,229.2425 L82.4333,229.2425 L82.4333,231.9144 L87.1989,231.9144 L87.1989,234.0706 L82.4333,234.0706 L82.4333,237.3206 L87.6989,237.3206 L87.6989,239.4769 Z " fill="#000000"/><text fill="#000000" font-family="sans-serif" font-size="14" lengthAdjust="spacing" textLength="55.7471" x="104.0896" y="238.3236">Projects</text><line style="stroke:#181818;stroke-width:0.5;" x1="8.28" x2="223.1462" y1="249.4769" y2="249.4769"/><g data-visibility-modifier="IE_MANDATORY"><ellipse cx="18.28" cy="263.1253" fill="#000000" rx="3" ry="3" style="stroke:#000000;stroke-width:1;"/></g><text fill="#000000" font-family="sans-serif" font-size="14" lengthAdjust="spacing" textLength="187.3662" x="27.28" y="266.472">project_id  : INTEGER &#171;PK&#187;</text><text fill="#000000" font-family="sans-serif" font-size="14" lengthAdjust="spacing" textLength="128.9121" x="27.28" y="282.7689">name          : TEXT</text><text fill="#000000" font-family="sans-serif" font-size="14" lengthAdjust="spacing" textLength="135.8984" x="27.28" y="299.0657">description   : TEXT</text><text fill="#000000" font-family="sans-serif" font-size="14" lengthAdjust="spacing" textLength="137.2109" x="27.28" y="315.3626">created_at    : TEXT</text><text fill="#000000" font-family="sans-serif" font-size="14" lengthAdjust="spacing" textLength="190.8662" x="27.28" y="331.6595">user_id       : INTEGER &#171;FK&#187;</text><line style="stroke:#181818;stroke-width:0.5;" x1="8.28" x2="223.1462" y1="338.9613" y2="338.9613"/></g><!--class Categories--><g class="entity" data-entity="Categories" data-source-line="18" data-uid="ent0004" id="entity_Categories"><rect fill="#F1F1F1" height="113.1875" rx="2.5" ry="2.5" style="stroke:#181818;stroke-width:0.5;" width="221.8906" x="259.77" y="447.7069"/><ellipse cx="328.7344" cy="463.7069" fill="#ADD1B2" rx="11" ry="11" style="stroke:#181818;stroke-width:1;"/><path d="M332.8437,469.7069 L325.125,469.7069 L325.125,457.3163 L332.8437,457.3163 L332.8437,459.4725 L327.5781,459.4725 L327.5781,462.1444 L332.3437,462.1444 L332.3437,464.3006 L327.5781,464.3006 L327.5781,467.5506 L332.8437,467.5506 L332.8437,469.7069 Z " fill="#000000"/><text fill="#000000" font-family="sans-serif" font-size="14" lengthAdjust="spacing" textLength="75.4619" x="349.2344" y="468.5536">Categories</text><line style="stroke:#181818;stroke-width:0.5;" x1="260.77" x2="480.6606" y1="479.7069" y2="479.7069"/><g data-visibility-modifier="IE_MANDATORY"><ellipse cx="270.77" cy="493.3553" fill="#000000" rx="3" ry="3" style="stroke:#000000;stroke-width:1;"/></g><text fill="#000000" font-family="sans-serif" font-size="14" lengthAdjust="spacing" textLength="195.8906" x="279.77" y="496.702">category_id : INTEGER &#171;PK&#187;</text><text fill="#000000" font-family="sans-serif" font-size="14" lengthAdjust="spacing" textLength="128.9121" x="279.77" y="512.9989">name          : TEXT</text><text fill="#000000" font-family="sans-serif" font-size="14" lengthAdjust="spacing" textLength="135.8984" x="279.77" y="529.2957">description   : TEXT</text><text fill="#000000" font-family="sans-serif" font-size="14" lengthAdjust="spacing" textLength="137.2109" x="279.77" y="545.5926">created_at    : TEXT</text><line style="stroke:#181818;stroke-width:0.5;" x1="260.77" x2="480.6606" y1="552.8944" y2="552.8944"/></g><!--class Tasks--><g class="entity" data-entity="Tasks" data-source-line="25" data-uid="ent0005" id="entity_Tasks"><rect fill="#F1F1F1" height="194.6719" rx="2.5" ry="2.5" style="stroke:#181818;stroke-width:0.5;" width="217.4268" x="7" y="406.9669"/><ellipse cx="91.5503" cy="422.9669" fill="#ADD1B2" rx="11" ry="11" style="stroke:#181818;stroke-width:1;"/><path d="M95.6597,428.9669 L87.9409,428.9669 L87.9409,416.5763 L95.6597,416.5763 L95.6597,418.7325 L90.394,418.7325 L90.394,421.4044 L95.1597,421.4044 L95.1597,423.5606 L90.394,423.5606 L90.394,426.8106 L95.6597,426.8106 L95.6597,428.9669 Z " fill="#000000"/><text fill="#000000" font-family="sans-serif" font-size="14" lengthAdjust="spacing" textLength="39.8262" x="112.0503" y="427.8136">Tasks</text><line style="stroke:#181818;stroke-width:0.5;" x1="8" x2="223.4268" y1="438.9669" y2="438.9669"/><g data-visibility-modifier="IE_MANDATORY"><ellipse cx="18" cy="452.6153" fill="#000000" rx="3" ry="3" style="stroke:#000000;stroke-width:1;"/></g><text fill="#000000" font-family="sans-serif" font-size="14" lengthAdjust="spacing" textLength="176.8389" x="27" y="455.962">task_id    : INTEGER &#171;PK&#187;</text><text fill="#000000" font-family="sans-serif" font-size="14" lengthAdjust="spacing" textLength="107.6797" x="27" y="472.2589">title        : TEXT</text><text fill="#000000" font-family="sans-serif" font-size="14" lengthAdjust="spacing" textLength="131.4482" x="27" y="488.5557">description  : TEXT</text><text fill="#000000" font-family="sans-serif" font-size="14" lengthAdjust="spacing" textLength="131.8994" x="27" y="504.8526">due_date     : TEXT</text><text fill="#000000" font-family="sans-serif" font-size="14" lengthAdjust="spacing" textLength="117.4756" x="27" y="521.1495">priority     : TEXT</text><text fill="#000000" font-family="sans-serif" font-size="14" lengthAdjust="spacing" textLength="118.877" x="27" y="537.4464">status       : TEXT</text><text fill="#000000" font-family="sans-serif" font-size="14" lengthAdjust="spacing" textLength="132.7607" x="27" y="553.7432">created_at   : TEXT</text><text fill="#000000" font-family="sans-serif" font-size="14" lengthAdjust="spacing" textLength="137.3408" x="27" y="570.0401">updated_at   : TEXT</text><text fill="#000000" font-family="sans-serif" font-size="14" lengthAdjust="spacing" textLength="191.4268" x="27" y="586.337">project_id   : INTEGER &#171;FK&#187;</text><line style="stroke:#181818;stroke-width:0.5;" x1="8" x2="223.4268" y1="593.6388" y2="593.6388"/></g><!--class TaskCategories--><g class="entity" data-entity="TaskCategories" data-source-line="37" data-uid="ent0006" id="entity_TaskCategories"><rect fill="#F1F1F1" height="96.8906" rx="2.5" ry="2.5" style="stroke:#181818;stroke-width:0.5;" width="243.5742" x="120.93" y="661.6369"/><ellipse cx="180.97" cy="677.6369" fill="#ADD1B2" rx="11" ry="11" style="stroke:#181818;stroke-width:1;"/><path d="M185.0794,683.6369 L177.3607,683.6369 L177.3607,671.2463 L185.0794,671.2463 L185.0794,673.4025 L179.8138,673.4025 L179.8138,676.0744 L184.5794,676.0744 L184.5794,678.2306 L179.8138,678.2306 L179.8138,681.4806 L185.0794,681.4806 L185.0794,683.6369 Z " fill="#000000"/><text fill="#000000" font-family="sans-serif" font-size="14" lengthAdjust="spacing" textLength="114.9941" x="201.47" y="682.4836">Task_Categories</text><line style="stroke:#181818;stroke-width:0.5;" x1="121.93" x2="363.5042" y1="693.6369" y2="693.6369"/><g data-visibility-modifier="IE_MANDATORY"><ellipse cx="131.93" cy="707.2853" fill="#000000" rx="3" ry="3" style="stroke:#000000;stroke-width:1;"/></g><text fill="#000000" font-family="sans-serif" font-size="14" lengthAdjust="spacing" textLength="202.9727" x="140.93" y="710.632">task_id     : INTEGER &#171;PK,FK&#187;</text><g data-visibility-modifier="IE_MANDATORY"><ellipse cx="131.93" cy="723.5822" fill="#000000" rx="3" ry="3" style="stroke:#000000;stroke-width:1;"/></g><text fill="#000000" font-family="sans-serif" font-size="14" lengthAdjust="spacing" textLength="217.5742" x="140.93" y="726.9289">category_id : INTEGER &#171;PK,FK&#187;</text><text fill="#000000" font-family="sans-serif" font-size="14" lengthAdjust="spacing" textLength="141.4424" x="140.93" y="743.2257">assigned_at   : TEXT</text><line style="stroke:#181818;stroke-width:0.5;" x1="121.93" x2="363.5042" y1="750.5275" y2="750.5275"/></g><!--link Users to Projects--><g class="link" data-entity-1="Users" data-entity-2="Projects" data-link-type="crowfoot" data-source-line="44" data-uid="lnk7" id="link_Users_Projects"><path codeLine="44" d="M115.71,165.6469 C115.71,184.4669 115.71,179.6169 115.71,199.0269" fill="none" id="Users-Projects" style="stroke:#181818;stroke-width:1;"/><line style="stroke:#181818;stroke-width:1;" x1="111.71" x2="119.71" y1="161.6469" y2="161.6469"/><line style="stroke:#181818;stroke-width:1;" x1="111.71" x2="119.71" y1="164.6469" y2="164.6469"/><line style="stroke:#181818;stroke-width:1;" x1="115.71" x2="115.71" y1="165.6469" y2="157.6469"/><line style="stroke:#181818;stroke-width:1;" x1="115.71" x2="121.71" y1="209.0269" y2="217.0269"/><line style="stroke:#181818;stroke-width:1;" x1="115.71" x2="109.71" y1="209.0269" y2="217.0269"/><line style="stroke:#181818;stroke-width:1;" x1="115.71" x2="115.71" y1="209.0269" y2="217.0269"/><ellipse cx="115.71" cy="203.0269" fill="none" rx="4" ry="4" style="stroke:#181818;stroke-width:1;"/></g><!--link Projects to Tasks--><g class="link" data-entity-1="Projects" data-entity-2="Tasks" data-link-type="crowfoot" data-source-line="45" data-uid="lnk8" id="link_Projects_Tasks"><path codeLine="45" d="M115.71,355.1769 C115.71,373.8269 115.71,368.6469 115.71,388.8369" fill="none" id="Projects-Tasks" style="stroke:#181818;stroke-width:1;"/><line style="stroke:#181818;stroke-width:1;" x1="111.71" x2="119.71" y1="351.1769" y2="351.1769"/><line style="stroke:#181818;stroke-width:1;" x1="111.71" x2="119.71" y1="354.1769" y2="354.1769"/><line style="stroke:#181818;stroke-width:1;" x1="115.71" x2="115.71" y1="355.1769" y2="347.1769"/><line style="stroke:#181818;stroke-width:1;" x1="115.71" x2="121.71" y1="398.8369" y2="406.8369"/><line style="stroke:#181818;stroke-width:1;" x1="115.71" x2="109.71" y1="398.8369" y2="406.8369"/><line style="stroke:#181818;stroke-width:1;" x1="115.71" x2="115.71" y1="398.8369" y2="406.8369"/><ellipse cx="115.71" cy="392.8369" fill="none" rx="4" ry="4" style="stroke:#181818;stroke-width:1;"/></g><!--link Tasks to TaskCategories--><g class="link" data-entity-1="Tasks" data-entity-2="TaskCategories" data-link-type="crowfoot" data-source-line="46" data-uid="lnk9" id="link_Tasks_TaskCategories"><path codeLine="46" d="M180.2811,608.9064 C193.0811,629.4464 192.2971,628.1923 203.3571,645.9323" fill="none" id="Tasks-TaskCategories" style="stroke:#181818;stroke-width:1;"/><line style="stroke:#181818;stroke-width:1;" x1="174.7708" x2="181.5603" y1="607.6272" y2="603.3961"/><line style="stroke:#181818;stroke-width:1;" x1="176.3574" x2="183.147" y1="610.1733" y2="605.9422"/><line style="stroke:#181818;stroke-width:1;" x1="180.2811" x2="176.05" y1="608.9064" y2="602.1169"/><line style="stroke:#181818;stroke-width:1;" x1="208.6476" x2="217.9715" y1="654.4182" y2="658.0326"/><line style="stroke:#181818;stroke-width:1;" x1="208.6476" x2="207.7885" y1="654.4182" y2="664.3812"/><line style="stroke:#181818;stroke-width:1;" x1="208.6476" x2="212.88" y1="654.4182" y2="661.2069"/><ellipse cx="205.4733" cy="649.3266" fill="none" rx="4" ry="4" style="stroke:#181818;stroke-width:1;"/></g><!--link Categories to TaskCategories--><g class="link" data-entity-1="Categories" data-entity-2="TaskCategories" data-link-type="crowfoot" data-source-line="47" data-uid="lnk10" id="link_Categories_TaskCategories"><path codeLine="47" d="M331.3141,568.0309 C311.6241,599.3709 301.1643,616.0344 282.3643,645.9644" fill="none" id="Categories-TaskCategories" style="stroke:#181818;stroke-width:1;"/><line style="stroke:#181818;stroke-width:1;" x1="330.055" x2="336.829" y1="562.5159" y2="566.7718"/><line style="stroke:#181818;stroke-width:1;" x1="328.4591" x2="335.2331" y1="565.0562" y2="569.3121"/><line style="stroke:#181818;stroke-width:1;" x1="331.3141" x2="335.57" y1="568.0309" y2="561.2569"/><line style="stroke:#181818;stroke-width:1;" x1="277.0452" x2="277.8708" y1="654.4324" y2="664.3983"/><line style="stroke:#181818;stroke-width:1;" x1="277.0452" x2="267.7092" y1="654.4324" y2="658.0154"/><line style="stroke:#181818;stroke-width:1;" x1="277.0452" x2="272.79" y1="654.4324" y2="661.2069"/><ellipse cx="280.2367" cy="649.3516" fill="none" rx="4" ry="4" style="stroke:#181818;stroke-width:1;"/></g><!--SRC=[jLF1JeGm4BttAoPxCJ7o0sQp5yCQep4RnSGRQMX3gWibxN3OxFeDVeE_u4K_0__8GWiK16xsD7qpp7iphw30FOVm0PYWgQ8P1F2OKOKGIIRXJcWaXESey02h9ysLNW7Lq4Hm903dK9eu5WpW4cxke_3Qz5glTxURZSdMkPnc7Efi53v71kCP5NjeJeSbYbFaBAROOcyzxKx95vwWPMulZhomrpb-nmqZEiPreaI1GkOpAdou6z0rwLcsDOkdzCfydaebkDNQNvtQn0A7kjl_gFN4H5I_MXrDv2IWYTqm4mgmUGsB0dgqv34p2eQrXH9cOiC_G3LIB3NCk-wlks0Jg6_qeWVriF78Y1hxOuQtYT4gBhPs6qk6jJLKQv7c8xb6pXbK7zNdptlrLNqJ-xkOSpe5WJnsZvXqhzab6gU8zQil7yedtYIJ1Ry0]--></g></svg>